STARTFONT 2.1
FONT -AmsteinGraphics-DMCP-Bold-R-Normal--52-520-36-38-P-123-ISO10646-1
SIZE 9 173 173
FONTBOUNDINGBOX 16 31 0 -6
STARTPROPERTIES 30
FAMILY_NAME "DMCP"
DEFAULT_CHAR -1
FOUNDRY "AmsteinGraphics"
COPYRIGHT "Copyright (c) 2022 SwissMicros"
CODEPAGE "MS Windows 1252 Western (ANSI)"
ENC_MODE 2
ENC_ID 1
CREATION_YEAR 2022
WEIGHT_NAME "Bold"
SLANT "R"
SETWIDTH_NAME "Normal"
SPACING "P"
WEIGHT 700
HI_VERSION 1
MAC_FONT_STYLE 1
CP_RANGE_1 65535
CP_RANGE_2 65535
FONTNAME_REGISTRY "-"
CHARSET_REGISTRY "ISO10646"
CHARSET_ENCODING "1"
BREAK_CHAR 32
PIXEL_SIZE 21
POINT_SIZE 90
FONT_ASCENT 21
FONT_DESCENT 6
RESOLUTION_X 173
RESOLUTION_Y 173
AVERAGE_WIDTH 123
X_HEIGHT 15
CAP_HEIGHT 20
ENDPROPERTIES
CHARS 289
STARTCHAR sigma.uni03C3
ENCODING 963
SWIDTH 582 0
DWIDTH 16 0
BBX 14 15 1 0
BITMAP
0FFC
3FFC
7FFC
79E0
F8F0
F070
F078
F078
F078
F078
F0F8
78F0
7FF0
3FE0
0F80
ENDCHAR
STARTCHAR exclam.uni0021
ENCODING 33
SWIDTH 582 0
DWIDTH 16 0
BBX 4 20 6 0
BITMAP
F000
F000
F000
F000
F000
F000
F000
F000
F000
F000
F000
F000
F000
0000
0000
0000
F000
F000
F000
F000
ENDCHAR
STARTCHAR quotedbl.uni0022
ENCODING 34
SWIDTH 582 0
DWIDTH 16 0
BBX 9 7 3 13
BITMAP
E380
E380
E380
E380
E380
E380
E380
ENDCHAR
STARTCHAR numbersign.uni0023
ENCODING 35
SWIDTH 582 0
DWIDTH 16 0
BBX 16 20 0 0
BITMAP
038E
038E
038E
071C
071C
7FFF
7FFF
7FFF
0E38
0E38
1C70
1C70
FFFE
FFFE
FFFE
38E0
38E0
71C0
71C0
71C0
ENDCHAR
STARTCHAR dollar.uni0024
ENCODING 36
SWIDTH 582 0
DWIDTH 16 0
BBX 12 24 2 -4
BITMAP
0600
0600
0600
1FC0
7FE0
7FE0
F620
E600
E600
FE00
7F80
7FE0
1FE0
07F0
0670
0670
C6F0
FFE0
FFE0
3F80
0600
0600
0600
0600
ENDCHAR
STARTCHAR percent.uni0025
ENCODING 37
SWIDTH 582 0
DWIDTH 16 0
BBX 15 20 0 0
BITMAP
3C00
7E00
E700
C300
C300
E700
7E04
3C1C
0070
01C0
0700
1C00
7078
40FC
01CE
0186
0186
01CE
00FC
0078
ENDCHAR
STARTCHAR ampersand.uni0026
ENCODING 38
SWIDTH 582 0
DWIDTH 16 0
BBX 15 20 1 0
BITMAP
07C0
1FE0
3FE0
3C20
3C00
3C00
1E00
0E00
1F00
3F80
7F8E
F3CE
F3CE
F1EE
F0FC
F8FC
F878
7FFC
3FFC
0F9E
ENDCHAR
STARTCHAR quotesingle.uni0027
ENCODING 39
SWIDTH 582 0
DWIDTH 16 0
BBX 3 7 6 13
BITMAP
E000
E000
E000
E000
E000
E000
E000
ENDCHAR
STARTCHAR parenleft.uni0028
ENCODING 40
SWIDTH 582 0
DWIDTH 16 0
BBX 7 24 5 -3
BITMAP
0E00
1C00
1C00
3C00
3800
7800
7800
7000
F000
F000
F000
F000
F000
F000
F000
F000
7000
7800
7800
3800
3C00
1C00
1C00
0E00
ENDCHAR
STARTCHAR parenright.uni0029
ENCODING 41
SWIDTH 582 0
DWIDTH 16 0
BBX 7 24 4 -3
BITMAP
E000
7000
7000
7800
3800
3C00
3C00
1C00
1E00
1E00
1E00
1E00
1E00
1E00
1E00
1E00
1C00
3C00
3C00
3800
7800
7000
7000
E000
ENDCHAR
STARTCHAR asterisk.uni002A
ENCODING 42
SWIDTH 582 0
DWIDTH 16 0
BBX 12 12 2 8
BITMAP
0600
0600
4620
F6F0
7FE0
1F80
1F80
7FE0
F6F0
4620
0600
0600
ENDCHAR
STARTCHAR plus.uni002B
ENCODING 43
SWIDTH 582 0
DWIDTH 16 0
BBX 13 15 1 1
BITMAP
0700
0700
0700
0700
0700
0700
FFF8
FFF8
FFF8
0700
0700
0700
0700
0700
0700
ENDCHAR
STARTCHAR comma.uni002C
ENCODING 44
SWIDTH 582 0
DWIDTH 16 0
BBX 5 9 5 -4
BITMAP
7800
7800
7800
7800
7800
7000
F000
F000
E000
ENDCHAR
STARTCHAR hyphen.uni002D
ENCODING 45
SWIDTH 582 0
DWIDTH 16 0
BBX 8 4 4 6
BITMAP
FF00
FF00
FF00
FF00
ENDCHAR
STARTCHAR period.uni002E
ENCODING 46
SWIDTH 582 0
DWIDTH 16 0
BBX 4 5 6 0
BITMAP
F000
F000
F000
F000
F000
ENDCHAR
STARTCHAR slash.uni002F
ENCODING 47
SWIDTH 582 0
DWIDTH 16 0
BBX 13 22 1 -2
BITMAP
0038
0038
0070
0070
00E0
00E0
01C0
01C0
0380
0380
0700
0700
0E00
0E00
1C00
1C00
3800
3800
7000
7000
E000
E000
ENDCHAR
STARTCHAR zero.uni0030
ENCODING 48
SWIDTH 582 0
DWIDTH 16 0
BBX 13 20 2 0
BITMAP
0F80
3FE0
3FE0
78F0
78F0
F078
F0F8
F1F8
F3F8
F7F8
FF78
FE78
FC78
F878
F078
78F0
78F0
3FE0
3FE0
0F80
ENDCHAR
STARTCHAR one.uni0031
ENCODING 49
SWIDTH 582 0
DWIDTH 16 0
BBX 12 20 3 0
BITMAP
3F00
FF00
FF00
CF00
0F00
0F00
0F00
0F00
0F00
0F00
0F00
0F00
0F00
0F00
0F00
0F00
0F00
FFF0
FFF0
FFF0
ENDCHAR
STARTCHAR two.uni0032
ENCODING 50
SWIDTH 582 0
DWIDTH 16 0
BBX 13 20 2 0
BITMAP
3F80
FFE0
FFF0
E0F8
8078
0078
0078
0070
00F0
01E0
03C0
0780
0F00
1F00
3E00
3C00
7800
FFF8
FFF8
FFF8
ENDCHAR
STARTCHAR three.uni0033
ENCODING 51
SWIDTH 582 0
DWIDTH 16 0
BBX 13 20 2 0
BITMAP
1FC0
7FE0
7FF0
60F8
4078
0078
0078
00F0
1FE0
1F80
1FE0
00F0
0078
0078
0078
8078
E0F8
FFF0
FFE0
3F80
ENDCHAR
STARTCHAR four.uni0034
ENCODING 52
SWIDTH 582 0
DWIDTH 16 0
BBX 13 20 2 0
BITMAP
01E0
03E0
03E0
07E0
0FE0
0FE0
1DE0
39E0
39E0
71E0
71E0
E1E0
FFF8
FFF8
FFF8
01E0
01E0
01E0
01E0
01E0
ENDCHAR
STARTCHAR five.uni0035
ENCODING 53
SWIDTH 582 0
DWIDTH 16 0
BBX 13 20 2 0
BITMAP
7FF0
7FF0
7FF0
7800
7800
7800
7800
7F80
7FE0
7FF0
41F0
00F8
0078
0078
0078
80F8
C1F0
FFF0
FFE0
3F80
ENDCHAR
STARTCHAR six.uni0036
ENCODING 54
SWIDTH 582 0
DWIDTH 16 0
BBX 13 20 2 0
BITMAP
07E0
1FF0
3FF0
7C30
7810
7800
F000
F7C0
FFE0
FFF0
F8F8
F078
F078
F078
F078
7078
78F0
3FF0
3FE0
0FC0
ENDCHAR
STARTCHAR seven.uni0037
ENCODING 55
SWIDTH 582 0
DWIDTH 16 0
BBX 13 20 2 0
BITMAP
FFF8
FFF8
FFF8
00F8
00F0
00F0
01F0
01E0
03E0
03C0
03C0
07C0
0780
0780
0F00
0F00
1F00
1E00
1E00
3E00
ENDCHAR
STARTCHAR eight.uni0038
ENCODING 56
SWIDTH 582 0
DWIDTH 16 0
BBX 13 20 2 0
BITMAP
1FC0
3FE0
7FF0
F8F8
F078
F078
F078
78F0
3FE0
0F80
3FE0
78F0
F078
F078
F078
F078
F8F8
7FF0
3FE0
1FC0
ENDCHAR
STARTCHAR nine.uni0039
ENCODING 57
SWIDTH 582 0
DWIDTH 16 0
BBX 13 20 2 0
BITMAP
1F80
3FE0
7FE0
78F0
F070
F078
F078
F078
F078
F8F8
7FF8
7FF8
1F78
0078
00F0
40F0
61F0
7FE0
7FC0
3F00
ENDCHAR
STARTCHAR colon.uni003A
ENCODING 58
SWIDTH 582 0
DWIDTH 16 0
BBX 4 14 6 0
BITMAP
F000
F000
F000
F000
F000
0000
0000
0000
0000
F000
F000
F000
F000
F000
ENDCHAR
STARTCHAR semicolon.uni003B
ENCODING 59
SWIDTH 582 0
DWIDTH 16 0
BBX 5 18 5 -4
BITMAP
7800
7800
7800
7800
7800
0000
0000
0000
0000
7800
7800
7800
7800
7800
7000
F000
F000
E000
ENDCHAR
STARTCHAR less.uni003C
ENCODING 60
SWIDTH 582 0
DWIDTH 16 0
BBX 13 14 1 2
BITMAP
0008
0078
01F8
07F0
3FC0
FE00
F800
F800
FE00
3FC0
07F0
01F8
0078
0008
ENDCHAR
STARTCHAR equal.uni003D
ENCODING 61
SWIDTH 582 0
DWIDTH 16 0
BBX 13 9 1 4
BITMAP
FFF8
FFF8
FFF8
0000
0000
0000
FFF8
FFF8
FFF8
ENDCHAR
STARTCHAR greater.uni003E
ENCODING 62
SWIDTH 582 0
DWIDTH 16 0
BBX 13 14 1 2
BITMAP
8000
F000
FC00
7F00
1FE0
03F8
00F8
00F8
03F8
1FE0
7F00
FC00
F000
8000
ENDCHAR
STARTCHAR question.uni003F
ENCODING 63
SWIDTH 582 0
DWIDTH 16 0
BBX 11 20 3 0
BITMAP
3F00
FFC0
FFE0
81E0
01E0
01E0
03C0
0780
0F00
1E00
1E00
1E00
1E00
1E00
0000
0000
1E00
1E00
1E00
1E00
ENDCHAR
STARTCHAR at.uni0040
ENCODING 64
SWIDTH 582 0
DWIDTH 16 0
BBX 15 23 0 -5
BITMAP
03E0
0FF8
1FFC
3E3C
381E
700E
71EE
F3FE
E3FE
E79E
E70E
E70E
E70E
E79E
E3FE
F3FE
71EE
7800
3C00
3E0C
1FFC
0FFE
01F8
ENDCHAR
STARTCHAR A.uni0041
ENCODING 65
SWIDTH 582 0
DWIDTH 16 0
BBX 15 20 0 0
BITMAP
07C0
07C0
07C0
0EE0
0EE0
0EE0
1EF0
1EF0
1C70
1C70
3C78
3C78
3FF8
3FF8
7FFC
783C
783C
701C
F01E
F01E
ENDCHAR
STARTCHAR B.uni0042
ENCODING 66
SWIDTH 582 0
DWIDTH 16 0
BBX 13 20 2 0
BITMAP
FF80
FFE0
FFE0
F1F0
F0F0
F0F0
F0F0
F1E0
FFE0
FF00
FFE0
F0F0
F078
F078
F078
F078
F0F8
FFF0
FFF0
FFC0
ENDCHAR
STARTCHAR C.uni0043
ENCODING 67
SWIDTH 582 0
DWIDTH 16 0
BBX 12 20 2 0
BITMAP
07E0
1FF0
3FF0
7C30
7810
7800
F000
F000
F000
F000
F000
F000
F000
F000
7800
7810
7C30
3FF0
1FF0
07E0
ENDCHAR
STARTCHAR D.uni0044
ENCODING 68
SWIDTH 582 0
DWIDTH 16 0
BBX 13 20 2 0
BITMAP
FF00
FFC0
FFE0
F1F0
F0F0
F0F0
F078
F078
F078
F078
F078
F078
F078
F078
F0F8
F0F0
F1F0
FFE0
FFC0
FF00
ENDCHAR
STARTCHAR E.uni0045
ENCODING 69
SWIDTH 582 0
DWIDTH 16 0
BBX 12 20 2 0
BITMAP
FFF0
FFF0
FFF0
F000
F000
F000
F000
F000
FFE0
FFE0
FFE0
F000
F000
F000
F000
F000
F000
FFF0
FFF0
FFF0
ENDCHAR
STARTCHAR F.uni0046
ENCODING 70
SWIDTH 582 0
DWIDTH 16 0
BBX 12 20 2 0
BITMAP
FFF0
FFF0
FFF0
F000
F000
F000
F000
F000
FFE0
FFE0
FFE0
F000
F000
F000
F000
F000
F000
F000
F000
F000
ENDCHAR
STARTCHAR G.uni0047
ENCODING 71
SWIDTH 582 0
DWIDTH 16 0
BBX 13 20 2 0
BITMAP
07E0
1FF0
3FF0
7C30
7800
7800
F000
F000
F000
F000
F1F8
F1F8
F1F8
F038
7838
7838
7C38
3FF8
1FF8
07E0
ENDCHAR
STARTCHAR H.uni0048
ENCODING 72
SWIDTH 582 0
DWIDTH 16 0
BBX 12 20 2 0
BITMAP
F0F0
F0F0
F0F0
F0F0
F0F0
F0F0
F0F0
F0F0
FFF0
FFF0
FFF0
F0F0
F0F0
F0F0
F0F0
F0F0
F0F0
F0F0
F0F0
F0F0
ENDCHAR
STARTCHAR I.uni0049
ENCODING 73
SWIDTH 582 0
DWIDTH 16 0
BBX 12 20 2 0
BITMAP
FFF0
FFF0
FFF0
0F00
0F00
0F00
0F00
0F00
0F00
0F00
0F00
0F00
0F00
0F00
0F00
0F00
0F00
FFF0
FFF0
FFF0
ENDCHAR
STARTCHAR J.uni004A
ENCODING 74
SWIDTH 582 0
DWIDTH 16 0
BBX 12 20 1 0
BITMAP
1FF0
1FF0
1FF0
00F0
00F0
00F0
00F0
00F0
00F0
00F0
00F0
00F0
00F0
00F0
00F0
80F0
C1F0
FFE0
FFE0
3F80
ENDCHAR
STARTCHAR K.uni004B
ENCODING 75
SWIDTH 582 0
DWIDTH 16 0
BBX 14 20 2 0
BITMAP
F07C
F078
F0F0
F1E0
F1E0
F3C0
F780
FF00
FF00
FF80
FF80
FBC0
F3C0
F1E0
F1F0
F0F0
F0F8
F078
F07C
F03C
ENDCHAR
STARTCHAR L.uni004C
ENCODING 76
SWIDTH 582 0
DWIDTH 16 0
BBX 12 20 3 0
BITMAP
F000
F000
F000
F000
F000
F000
F000
F000
F000
F000
F000
F000
F000
F000
F000
F000
F000
FFF0
FFF0
FFF0
ENDCHAR
STARTCHAR M.uni004D
ENCODING 77
SWIDTH 582 0
DWIDTH 16 0
BBX 13 20 1 0
BITMAP
F078
F8F8
F8F8
F8F8
F8F8
FDF8
EDB8
EDB8
EDB8
EFB8
EFB8
E738
E738
E038
E038
E038
E038
E038
E038
E038
ENDCHAR
STARTCHAR N.uni004E
ENCODING 78
SWIDTH 582 0
DWIDTH 16 0
BBX 12 20 2 0
BITMAP
F8F0
F8F0
F8F0
F8F0
FCF0
FCF0
FCF0
FCF0
F6F0
F6F0
F6F0
F6F0
F3F0
F3F0
F3F0
F3F0
F1F0
F1F0
F1F0
F1F0
ENDCHAR
STARTCHAR O.uni004F
ENCODING 79
SWIDTH 582 0
DWIDTH 16 0
BBX 13 20 1 0
BITMAP
0F80
3FC0
3FE0
78F0
78F0
F078
F078
F078
F078
F078
F078
F078
F078
F078
F078
78F0
78F0
3FE0
3FE0
0F80
ENDCHAR
STARTCHAR P.uni0050
ENCODING 80
SWIDTH 582 0
DWIDTH 16 0
BBX 12 20 2 0
BITMAP
FF80
FFC0
FFE0
F1F0
F0F0
F0F0
F0F0
F0F0
F1F0
FFE0
FFC0
FF80
F000
F000
F000
F000
F000
F000
F000
F000
ENDCHAR
STARTCHAR Q.uni0051
ENCODING 81
SWIDTH 582 0
DWIDTH 16 0
BBX 13 23 1 -3
BITMAP
0F80
3FC0
3FE0
78F0
78F0
F078
F078
F078
F078
F078
F078
F078
F078
F078
F078
78F0
78F0
3FE0
3FE0
0FC0
01E0
00F0
0040
ENDCHAR
STARTCHAR R.uni0052
ENCODING 82
SWIDTH 582 0
DWIDTH 16 0
BBX 14 20 2 0
BITMAP
FF80
FFE0
FFE0
F1F0
F0F0
F0F0
F0F0
F0F0
F1E0
FFE0
FF80
FF80
F3C0
F1E0
F1E0
F0F0
F0F0
F078
F078
F03C
ENDCHAR
STARTCHAR S.uni0053
ENCODING 83
SWIDTH 582 0
DWIDTH 16 0
BBX 12 20 2 0
BITMAP
1FC0
3FE0
7FE0
F860
F020
F000
F000
FC00
7F00
7FC0
1FE0
07E0
01F0
00F0
00F0
80F0
E1F0
FFE0
FFC0
3F80
ENDCHAR
STARTCHAR T.uni0054
ENCODING 84
SWIDTH 582 0
DWIDTH 16 0
BBX 14 20 1 0
BITMAP
FFFC
FFFC
FFFC
0780
0780
0780
0780
0780
0780
0780
0780
0780
0780
0780
0780
0780
0780
0780
0780
0780
ENDCHAR
STARTCHAR U.uni0055
ENCODING 85
SWIDTH 582 0
DWIDTH 16 0
BBX 12 20 2 0
BITMAP
F0F0
F0F0
F0F0
F0F0
F0F0
F0F0
F0F0
F0F0
F0F0
F0F0
F0F0
F0F0
F0F0
F0F0
F0F0
F0F0
F9F0
7FE0
3FC0
1F80
ENDCHAR
STARTCHAR V.uni0056
ENCODING 86
SWIDTH 582 0
DWIDTH 16 0
BBX 14 20 1 0
BITMAP
F03C
F03C
7038
7038
7878
7878
7878
3870
3870
3CF0
3CF0
1CE0
1CE0
1CE0
1FE0
1FE0
0FC0
0FC0
0FC0
0FC0
ENDCHAR
STARTCHAR W.uni0057
ENCODING 87
SWIDTH 582 0
DWIDTH 16 0
BBX 16 20 0 0
BITMAP
E007
E007
F00F
F00F
700F
73CE
73CE
73CE
73CE
73CE
77EE
77EE
766E
3E6E
3E6C
3E7C
3E7C
3C3C
3C3C
3C3C
ENDCHAR
STARTCHAR X.uni0058
ENCODING 88
SWIDTH 582 0
DWIDTH 16 0
BBX 15 20 0 0
BITMAP
F01E
783C
783C
3C78
1C70
1EF0
0FE0
0FE0
07C0
07C0
07C0
07C0
0FE0
0EE0
1EF0
3C78
3C78
783C
783C
F01E
ENDCHAR
STARTCHAR Y.uni0059
ENCODING 89
SWIDTH 582 0
DWIDTH 16 0
BBX 16 20 0 0
BITMAP
F00F
781E
781E
3C3C
3C3C
1E78
1E78
0FF0
0FF0
07E0
07E0
03C0
03C0
03C0
03C0
03C0
03C0
03C0
03C0
03C0
ENDCHAR
STARTCHAR Z.uni005A
ENCODING 90
SWIDTH 582 0
DWIDTH 16 0
BBX 13 20 2 0
BITMAP
FFF8
FFF8
FFF8
00F8
00F0
01F0
01E0
03C0
07C0
0780
0F00
1F00
1E00
3C00
7C00
7800
F000
FFF8
FFF8
FFF8
ENDCHAR
STARTCHAR bracketleft.uni005B
ENCODING 91
SWIDTH 582 0
DWIDTH 16 0
BBX 7 24 5 -3
BITMAP
FE00
FE00
FE00
F000
F000
F000
F000
F000
F000
F000
F000
F000
F000
F000
F000
F000
F000
F000
F000
F000
F000
FE00
FE00
FE00
ENDCHAR
STARTCHAR backslash.uni005C
ENCODING 92
SWIDTH 582 0
DWIDTH 16 0
BBX 13 22 1 -2
BITMAP
E000
E000
7000
7000
3800
3800
1C00
1C00
0E00
0E00
0700
0700
0380
0380
01C0
01C0
00E0
00E0
0070
0070
0038
0038
ENDCHAR
STARTCHAR bracketright.uni005D
ENCODING 93
SWIDTH 582 0
DWIDTH 16 0
BBX 7 24 4 -3
BITMAP
FE00
FE00
FE00
1E00
1E00
1E00
1E00
1E00
1E00
1E00
1E00
1E00
1E00
1E00
1E00
1E00
1E00
1E00
1E00
1E00
1E00
FE00
FE00
FE00
ENDCHAR
STARTCHAR asciicircum.uni005E
ENCODING 94
SWIDTH 582 0
DWIDTH 16 0
BBX 14 7 1 13
BITMAP
0780
0FC0
0FC0
1FE0
3CF0
7878
F03C
ENDCHAR
STARTCHAR underscore.uni005F
ENCODING 95
SWIDTH 582 0
DWIDTH 16 0
BBX 16 3 0 -6
BITMAP
FFFF
FFFF
FFFF
ENDCHAR
STARTCHAR grave.uni0060
ENCODING 96
SWIDTH 582 0
DWIDTH 16 0
BBX 7 5 3 17
BITMAP
F000
7800
3800
1C00
0E00
ENDCHAR
STARTCHAR a.uni0061
ENCODING 97
SWIDTH 582 0
DWIDTH 16 0
BBX 13 15 1 0
BITMAP
1FC0
7FF0
7FF0
6078
0078
1FF8
7FF8
7FF8
F878
F078
F078
F8F8
FFF8
7FF8
1E78
ENDCHAR
STARTCHAR b.uni0062
ENCODING 98
SWIDTH 582 0
DWIDTH 16 0
BBX 13 21 2 0
BITMAP
F000
F000
F000
F000
F000
F000
F3C0
F7E0
FFF0
F8F0
F8F8
F078
F078
F078
F078
F078
F0F8
F8F0
FFF0
F7E0
F3C0
ENDCHAR
STARTCHAR c.uni0063
ENCODING 99
SWIDTH 582 0
DWIDTH 16 0
BBX 11 15 2 0
BITMAP
0FC0
3FE0
7FE0
7C20
F800
F000
F000
F000
F000
F000
F800
7C20
7FE0
3FE0
0FC0
ENDCHAR
STARTCHAR d.uni0064
ENCODING 100
SWIDTH 582 0
DWIDTH 16 0
BBX 13 21 1 0
BITMAP
0078
0078
0078
0078
0078
0078
1E78
3F78
7FF8
78F8
F8F8
F078
F078
F078
F078
F078
F0F8
78F8
7FF8
3F78
1E78
ENDCHAR
STARTCHAR e.uni0065
ENCODING 101
SWIDTH 582 0
DWIDTH 16 0
BBX 13 15 1 0
BITMAP
0F80
3FE0
7FF0
78F0
F078
F078
FFF8
FFF8
FFF8
F000
F000
7810
7FF0
3FF0
0FE0
ENDCHAR
STARTCHAR f.uni0066
ENCODING 102
SWIDTH 582 0
DWIDTH 16 0
BBX 11 21 3 0
BITMAP
07E0
0FE0
1FE0
1E00
1E00
1E00
FFE0
FFE0
FFE0
1E00
1E00
1E00
1E00
1E00
1E00
1E00
1E00
1E00
1E00
1E00
1E00
ENDCHAR
STARTCHAR g.uni0067
ENCODING 103
SWIDTH 582 0
DWIDTH 16 0
BBX 13 21 1 -6
BITMAP
1E78
3FF8
7FF8
78F8
F8F8
F078
F078
F078
F078
F078
F8F8
78F8
7FF8
3FF8
1F78
0078
0078
40F0
7FF0
7FE0
3F80
ENDCHAR
STARTCHAR h.uni0068
ENCODING 104
SWIDTH 582 0
DWIDTH 16 0
BBX 11 21 2 0
BITMAP
F000
F000
F000
F000
F000
F000
F780
FFC0
FFE0
F9E0
F1E0
F1E0
F1E0
F1E0
F1E0
F1E0
F1E0
F1E0
F1E0
F1E0
F1E0
ENDCHAR
STARTCHAR i.uni0069
ENCODING 105
SWIDTH 582 0
DWIDTH 16 0
BBX 14 22 1 0
BITMAP
0780
0780
0780
0780
0780
0000
0000
7F80
7F80
7F80
0780
0780
0780
0780
0780
0780
0780
0780
0780
FFFC
FFFC
FFFC
ENDCHAR
STARTCHAR j.uni006A
ENCODING 106
SWIDTH 582 0
DWIDTH 16 0
BBX 9 28 2 -6
BITMAP
0780
0780
0780
0780
0780
0000
0000
7F80
7F80
7F80
0780
0780
0780
0780
0780
0780
0780
0780
0780
0780
0780
0780
0780
0780
0F80
FF00
FF00
FC00
ENDCHAR
STARTCHAR k.uni006B
ENCODING 107
SWIDTH 582 0
DWIDTH 16 0
BBX 13 21 2 0
BITMAP
F000
F000
F000
F000
F000
F000
F0F0
F1E0
F3C0
F780
FF80
FF00
FF00
FF80
FF80
F3C0
F1C0
F1E0
F0F0
F0F0
F078
ENDCHAR
STARTCHAR l.uni006C
ENCODING 108
SWIDTH 582 0
DWIDTH 16 0
BBX 13 21 1 0
BITMAP
FF00
FF00
FF00
0F00
0F00
0F00
0F00
0F00
0F00
0F00
0F00
0F00
0F00
0F00
0F00
0F00
0F00
0F80
07F8
07F8
01F8
ENDCHAR
STARTCHAR m.uni006D
ENCODING 109
SWIDTH 582 0
DWIDTH 16 0
BBX 13 15 1 0
BITMAP
EEF0
FEF0
FFF8
F778
F778
F778
F778
F778
F778
F778
F778
F778
F778
F778
F778
ENDCHAR
STARTCHAR n.uni006E
ENCODING 110
SWIDTH 582 0
DWIDTH 16 0
BBX 11 15 2 0
BITMAP
F780
FFC0
FFE0
F9E0
F1E0
F1E0
F1E0
F1E0
F1E0
F1E0
F1E0
F1E0
F1E0
F1E0
F1E0
ENDCHAR
STARTCHAR o.uni006F
ENCODING 111
SWIDTH 582 0
DWIDTH 16 0
BBX 13 15 1 0
BITMAP
0F80
3FE0
7FF0
78F0
F8F8
F078
F078
F078
F078
F078
F0F8
78F0
7FF0
3FE0
0F80
ENDCHAR
STARTCHAR p.uni0070
ENCODING 112
SWIDTH 582 0
DWIDTH 16 0
BBX 13 21 2 -6
BITMAP
F3C0
F7E0
FFF0
F8F0
F8F8
F078
F078
F078
F078
F078
F0F8
F8F0
FFF0
F7E0
F3C0
F000
F000
F000
F000
F000
F000
ENDCHAR
STARTCHAR q.uni0071
ENCODING 113
SWIDTH 582 0
DWIDTH 16 0
BBX 13 21 1 -6
BITMAP
1E78
3F78
7FF8
78F8
F8F8
F078
F078
F078
F078
F078
F0F8
78F8
7FF8
3F78
1E78
0078
0078
0078
0078
0078
0078
ENDCHAR
STARTCHAR r.uni0072
ENCODING 114
SWIDTH 582 0
DWIDTH 16 0
BBX 11 15 4 0
BITMAP
F3C0
F7E0
FFE0
FC20
F800
F000
F000
F000
F000
F000
F000
F000
F000
F000
F000
ENDCHAR
STARTCHAR s.uni0073
ENCODING 115
SWIDTH 582 0
DWIDTH 16 0
BBX 11 15 2 0
BITMAP
1F80
7FC0
FFC0
F040
F000
F800
FF00
7FC0
1FE0
03E0
01E0
81E0
FFE0
FFC0
3F00
ENDCHAR
STARTCHAR t.uni0074
ENCODING 116
SWIDTH 582 0
DWIDTH 16 0
BBX 13 19 1 0
BITMAP
0F00
0F00
0F00
0F00
FFF8
FFF8
FFF8
0F00
0F00
0F00
0F00
0F00
0F00
0F00
0F00
0F00
0FF8
07F8
03F8
ENDCHAR
STARTCHAR u.uni0075
ENCODING 117
SWIDTH 582 0
DWIDTH 16 0
BBX 11 15 2 0
BITMAP
F1E0
F1E0
F1E0
F1E0
F1E0
F1E0
F1E0
F1E0
F1E0
F1E0
F1E0
F3E0
FFE0
7FE0
3DE0
ENDCHAR
STARTCHAR v.uni0076
ENCODING 118
SWIDTH 582 0
DWIDTH 16 0
BBX 14 15 1 0
BITMAP
F03C
F03C
7038
7878
7878
3870
3CF0
3CF0
1CE0
1CE0
1FE0
0FC0
0FC0
0FC0
0FC0
ENDCHAR
STARTCHAR w.uni0077
ENCODING 119
SWIDTH 582 0
DWIDTH 16 0
BBX 16 15 0 0
BITMAP
E007
E007
E007
700E
73CE
73CE
73CE
73CE
73CE
3F7C
3E7C
3E7C
3E7C
3E7C
1C38
ENDCHAR
STARTCHAR x.uni0078
ENCODING 120
SWIDTH 582 0
DWIDTH 16 0
BBX 14 15 1 0
BITMAP
F87C
7878
3CF0
3CF0
1FE0
0FC0
07C0
0780
0FC0
0FC0
1FE0
3CF0
3CF0
7878
F87C
ENDCHAR
STARTCHAR y.uni0079
ENCODING 121
SWIDTH 582 0
DWIDTH 16 0
BBX 14 21 1 -6
BITMAP
F03C
703C
7878
7878
3870
3CF0
3CF0
1CE0
1EE0
0FE0
0FC0
0FC0
07C0
0780
0780
0780
0700
0F00
7F00
7E00
7C00
ENDCHAR
STARTCHAR z.uni007A
ENCODING 122
SWIDTH 582 0
DWIDTH 16 0
BBX 12 15 2 0
BITMAP
FFF0
FFF0
FFF0
01F0
03E0
03C0
0780
0F00
1E00
3C00
7C00
F800
FFF0
FFF0
FFF0
ENDCHAR
STARTCHAR braceleft.uni007B
ENCODING 123
SWIDTH 582 0
DWIDTH 16 0
BBX 12 25 2 -4
BITMAP
03F0
07F0
0FF0
0F80
0F00
0F00
0F00
0F00
0F00
0F00
1F00
FE00
F800
FE00
1F00
0F00
0F00
0F00
0F00
0F00
0F00
0F00
0FF0
07F0
03F0
ENDCHAR
STARTCHAR bar.uni007C
ENCODING 124
SWIDTH 582 0
DWIDTH 16 0
BBX 3 27 6 -6
BITMAP
E000
E000
E000
E000
E000
E000
E000
E000
E000
E000
E000
E000
E000
E000
E000
E000
E000
E000
E000
E000
E000
E000
E000
E000
E000
E000
E000
ENDCHAR
STARTCHAR braceright.uni007D
ENCODING 125
SWIDTH 582 0
DWIDTH 16 0
BBX 12 25 2 -4
BITMAP
FC00
FE00
FF00
1F00
0F00
0F00
0F00
0F00
0F00
0F00
0F80
07F0
01F0
07F0
0F80
0F00
0F00
0F00
0F00
0F00
0F00
1F00
FF00
FE00
FC00
ENDCHAR
STARTCHAR asciitilde.uni007E
ENCODING 126
SWIDTH 582 0
DWIDTH 16 0
BBX 13 5 1 6
BITMAP
3C08
FF18
FFF8
C3F8
01E0
ENDCHAR
STARTCHAR nbsp.uni00A0
ENCODING 160
SWIDTH 582 0
DWIDTH 16 0
BBX 0 0 0 0
BITMAP
ENDCHAR
STARTCHAR exclamdown.uni00A1
ENCODING 161
SWIDTH 582 0
DWIDTH 16 0
BBX 4 20 6 0
BITMAP
F000
F000
F000
F000
0000
0000
0000
F000
F000
F000
F000
F000
F000
F000
F000
F000
F000
F000
F000
F000
ENDCHAR
STARTCHAR cent.uni00A2
ENCODING 162
SWIDTH 582 0
DWIDTH 16 0
BBX 11 23 2 -4
BITMAP
0300
0300
0300
0300
0FC0
3FE0
7FE0
7B20
F300
F300
F300
F300
F300
F300
F300
7B20
7FE0
3FE0
0FC0
0300
0300
0300
0300
ENDCHAR
STARTCHAR sterling.uni00A3
ENCODING 163
SWIDTH 582 0
DWIDTH 16 0
BBX 13 20 2 0
BITMAP
03F0
07F8
0FF8
1F18
1E00
1E00
1E00
1E00
1E00
FFE0
FFE0
FFE0
1E00
1E00
1E00
1E00
1E00
FFF8
FFF8
FFF8
ENDCHAR
STARTCHAR currency.uni00A4
ENCODING 164
SWIDTH 582 0
DWIDTH 16 0
BBX 13 13 2 2
BITMAP
4010
E038
7770
3FE0
18C0
3060
3060
3060
18C0
3FE0
7770
E038
4010
ENDCHAR
STARTCHAR yen.uni00A5
ENCODING 165
SWIDTH 582 0
DWIDTH 16 0
BBX 16 20 0 0
BITMAP
F00F
781E
781E
3C3C
3C3C
1C38
1E78
1E78
7FFE
7FFE
07E0
03C0
7FFE
7FFE
03C0
03C0
03C0
03C0
03C0
03C0
ENDCHAR
STARTCHAR brokenbar.uni00A6
ENCODING 166
SWIDTH 582 0
DWIDTH 16 0
BBX 3 24 6 -5
BITMAP
E000
E000
E000
E000
E000
E000
E000
E000
E000
E000
0000
0000
0000
0000
E000
E000
E000
E000
E000
E000
E000
E000
E000
E000
ENDCHAR
STARTCHAR section.uni00A7
ENCODING 167
SWIDTH 582 0
DWIDTH 16 0
BBX 11 23 2 -3
BITMAP
1F00
3F80
7F80
7080
7000
7000
7C00
3E00
7F80
F7C0
E1E0
E0E0
F0E0
7DE0
3FC0
0F80
0780
03C0
01C0
41C0
7FC0
7F80
3F00
ENDCHAR
STARTCHAR dieresis.uni00A8
ENCODING 168
SWIDTH 582 0
DWIDTH 16 0
BBX 8 3 4 18
BITMAP
E700
E700
E700
ENDCHAR
STARTCHAR copyright.uni00A9
ENCODING 169
SWIDTH 582 0
DWIDTH 16 0
BBX 16 16 0 2
BITMAP
07E0
1FF8
3C3C
700E
63E6
E627
CC03
CC03
CC03
CC03
E627
63E6
700E
3C3C
1FF8
07E0
ENDCHAR
STARTCHAR ordfeminine.uni00AA
ENCODING 170
SWIDTH 582 0
DWIDTH 16 0
BBX 9 14 3 6
BITMAP
3E00
7F00
4380
0380
3F80
7F80
E380
E380
E780
FF80
7B80
0000
7F80
7F80
ENDCHAR
STARTCHAR guillemotleft.uni00AB
ENCODING 171
SWIDTH 582 0
DWIDTH 16 0
BBX 12 12 2 2
BITMAP
0410
0C30
1C70
38E0
71C0
E380
E380
71C0
38E0
1C70
0C30
0410
ENDCHAR
STARTCHAR logicalnot.uni00AC
ENCODING 172
SWIDTH 582 0
DWIDTH 16 0
BBX 13 7 1 5
BITMAP
FFF8
FFF8
FFF8
0038
0038
0038
0038
ENDCHAR
STARTCHAR hyphensoft.uni00AD
ENCODING 173
SWIDTH 582 0
DWIDTH 16 0
BBX 8 4 4 6
BITMAP
FF00
FF00
FF00
FF00
ENDCHAR
STARTCHAR registered.uni00AE
ENCODING 174
SWIDTH 582 0
DWIDTH 16 0
BBX 16 16 0 2
BITMAP
07E0
1FF8
3C3C
700E
67C6
E667
C663
C7C3
C6C3
C663
E667
6676
700E
3C3C
1FF8
07E0
ENDCHAR
STARTCHAR macron.uni00AF
ENCODING 175
SWIDTH 582 0
DWIDTH 16 0
BBX 8 2 4 19
BITMAP
FF00
FF00
ENDCHAR
STARTCHAR degree.uni00B0
ENCODING 176
SWIDTH 582 0
DWIDTH 16 0
BBX 8 9 4 11
BITMAP
3C00
7E00
E700
C300
C300
C300
E700
7E00
3C00
ENDCHAR
STARTCHAR plusminus.uni00B1
ENCODING 177
SWIDTH 582 0
DWIDTH 16 0
BBX 13 17 1 0
BITMAP
0700
0700
0700
0700
0700
FFF8
FFF8
FFF8
0700
0700
0700
0700
0700
0000
FFF8
FFF8
FFF8
ENDCHAR
STARTCHAR twosuperior.uni00B2
ENCODING 178
SWIDTH 582 0
DWIDTH 16 0
BBX 8 11 3 9
BITMAP
7E00
FF00
8700
0700
0E00
0C00
1800
3000
6000
FF00
FF00
ENDCHAR
STARTCHAR threesuperior.uni00B3
ENCODING 179
SWIDTH 582 0
DWIDTH 16 0
BBX 9 11 4 9
BITMAP
7E00
FF80
8380
0380
3F00
3F00
0780
0380
8380
FF00
7E00
ENDCHAR
STARTCHAR acute.uni00B4
ENCODING 180
SWIDTH 582 0
DWIDTH 16 0
BBX 7 5 6 17
BITMAP
1E00
3C00
3800
7000
E000
ENDCHAR
STARTCHAR micro.uni00B5
ENCODING 181
SWIDTH 582 0
DWIDTH 16 0
BBX 12 21 2 -6
BITMAP
F1E0
F1E0
F1E0
F1E0
F1E0
F1E0
F1E0
F1E0
F1E0
F1E0
F1E0
FBE0
FFF0
FFF0
FE70
F000
F000
F000
F000
F000
F000
ENDCHAR
STARTCHAR paragraph.uni00B6
ENCODING 182
SWIDTH 582 0
DWIDTH 16 0
BBX 13 23 1 -3
BITMAP
0FF8
3FF8
7F98
FF98
FF98
FF98
FF98
FF98
7F98
3F98
1F98
0198
0198
0198
0198
0198
0198
0198
0198
0198
0198
0198
0198
ENDCHAR
STARTCHAR periodcentered.uni00B7
ENCODING 183
SWIDTH 582 0
DWIDTH 16 0
BBX 4 5 6 7
BITMAP
F000
F000
F000
F000
F000
ENDCHAR
STARTCHAR cedilla.uni00B8
ENCODING 184
SWIDTH 582 0
DWIDTH 16 0
BBX 6 5 4 -5
BITMAP
1800
0C00
0C00
FC00
F800
ENDCHAR
STARTCHAR onesuperior.uni00B9
ENCODING 185
SWIDTH 582 0
DWIDTH 16 0
BBX 9 11 4 9
BITMAP
3C00
FC00
DC00
1C00
1C00
1C00
1C00
1C00
1C00
FF80
FF80
ENDCHAR
STARTCHAR ordmasculine.uni00BA
ENCODING 186
SWIDTH 582 0
DWIDTH 16 0
BBX 9 14 3 6
BITMAP
3E00
7F00
7700
E380
E380
E380
E380
E380
7700
7F00
3E00
0000
FF80
FF80
ENDCHAR
STARTCHAR guillemotright.uni00BB
ENCODING 187
SWIDTH 582 0
DWIDTH 16 0
BBX 12 12 2 2
BITMAP
8200
C300
E380
71C0
38E0
1C70
1C70
38E0
71C0
E380
C300
8200
ENDCHAR
STARTCHAR onequarter.uni00BC
ENCODING 188
SWIDTH 582 0
DWIDTH 16 0
BBX 14 25 1 -3
BITMAP
3C00
FC00
DC00
1C00
1C00
1C00
1C00
1C00
1C00
FF80
FF9C
01FC
3FF0
FE00
E070
00F0
01F0
03F0
0370
0670
0C70
0FF8
0FF8
0070
0070
ENDCHAR
STARTCHAR onehalf.uni00BD
ENCODING 189
SWIDTH 582 0
DWIDTH 16 0
BBX 14 25 1 -3
BITMAP
3C00
FC00
DC00
1C00
1C00
1C00
1C00
1C00
1C00
FF80
FF9C
01FC
3FF0
FE00
E3E0
07F8
0438
0038
0070
0060
00C0
0180
0300
07F8
07F8
ENDCHAR
STARTCHAR threequarters.uni00BE
ENCODING 190
SWIDTH 582 0
DWIDTH 16 0
BBX 14 25 1 -3
BITMAP
7E00
FF80
8380
0380
3F00
3F00
0780
0380
8380
FF00
7E1C
01FC
3FF0
FE00
E070
00F0
01F0
03F0
0370
0670
0C70
0FF8
0FF8
0070
0070
ENDCHAR
STARTCHAR questiondown.uni00BF
ENCODING 191
SWIDTH 582 0
DWIDTH 16 0
BBX 11 20 3 0
BITMAP
0F00
0F00
0F00
0F00
0000
0000
0F00
0F00
0F00
0F00
0F00
1E00
3C00
7800
F000
F000
F020
FFE0
7FE0
1F80
ENDCHAR
STARTCHAR Agrave.uni00C0
ENCODING 192
SWIDTH 582 0
DWIDTH 16 0
BBX 15 25 0 0
BITMAP
0700
0380
01C0
0000
0000
07C0
07C0
07C0
0EE0
0EE0
0EE0
1EF0
1EF0
1C70
1C70
3C78
3C78
3FF8
3FF8
7FFC
783C
783C
701C
F01E
F01E
ENDCHAR
STARTCHAR Aacute.uni00C1
ENCODING 193
SWIDTH 582 0
DWIDTH 16 0
BBX 15 25 0 0
BITMAP
00E0
01C0
0380
0000
0000
07C0
07C0
07C0
0EE0
0EE0
0EE0
1EF0
1EF0
1C70
1C70
3C78
3C78
3FF8
3FF8
7FFC
783C
783C
701C
F01E
F01E
ENDCHAR
STARTCHAR Acircumflex.uni00C2
ENCODING 194
SWIDTH 582 0
DWIDTH 16 0
BBX 15 25 0 0
BITMAP
07E0
0FF0
1C38
0000
0000
07C0
07C0
07C0
0EE0
0EE0
0EE0
1EF0
1EF0
1C70
1C70
3C78
3C78
3FF8
3FF8
7FFC
783C
783C
701C
F01E
F01E
ENDCHAR
STARTCHAR Atilde.uni00C3
ENCODING 195
SWIDTH 582 0
DWIDTH 16 0
BBX 15 25 0 0
BITMAP
0E30
1F30
19F0
18E0
0000
07C0
07C0
07C0
0EE0
0EE0
0EE0
1EF0
1EF0
1C70
1C70
3C78
3C78
3FF8
3FF8
7FFC
783C
783C
701C
F01E
F01E
ENDCHAR
STARTCHAR Adieresis.uni00C4
ENCODING 196
SWIDTH 582 0
DWIDTH 16 0
BBX 15 25 0 0
BITMAP
0E70
0E70
0E70
0000
0000
07C0
07C0
07C0
0EE0
0EE0
0EE0
1EF0
1EF0
1C70
1C70
3C78
3C78
3FF8
3FF8
7FFC
783C
783C
701C
F01E
F01E
ENDCHAR
STARTCHAR Aring.uni00C5
ENCODING 197
SWIDTH 582 0
DWIDTH 16 0
BBX 15 25 1 0
BITMAP
0380
07C0
0C60
0C60
0C60
07C0
07C0
07C0
0FE0
0EE0
0EE0
0EE0
1EF0
1C70
1C70
1C70
3C78
3FF8
3FF8
7FFC
783C
783C
701C
F01E
F01E
ENDCHAR
STARTCHAR AE.uni00C6
ENCODING 198
SWIDTH 582 0
DWIDTH 16 0
BBX 15 20 0 0
BITMAP
07FE
0FFE
0FFE
0EE0
0EE0
1CE0
1CE0
1CE0
1CFC
3CFC
38FC
38E0
3FE0
7FE0
7FE0
70E0
70E0
70FE
F0FE
E0FE
ENDCHAR
STARTCHAR Ccedilla.uni00C7
ENCODING 199
SWIDTH 582 0
DWIDTH 16 0
BBX 12 25 2 -5
BITMAP
07E0
1FF0
3FF0
7C30
7810
7800
F000
F000
F000
F000
F000
F000
F000
F000
7800
7810
7C30
3FF0
1FF0
07E0
0300
0180
0180
1F80
1F00
ENDCHAR
STARTCHAR Egrave.uni00C8
ENCODING 200
SWIDTH 582 0
DWIDTH 16 0
BBX 12 25 2 0
BITMAP
1C00
0E00
0700
0000
0000
FFF0
FFF0
FFF0
F000
F000
F000
F000
F000
FFE0
FFE0
FFE0
F000
F000
F000
F000
F000
F000
FFF0
FFF0
FFF0
ENDCHAR
STARTCHAR Eacute.uni00C9
ENCODING 201
SWIDTH 582 0
DWIDTH 16 0
BBX 12 25 2 0
BITMAP
0380
0700
0E00
0000
0000
FFF0
FFF0
FFF0
F000
F000
F000
F000
F000
FFE0
FFE0
FFE0
F000
F000
F000
F000
F000
F000
FFF0
FFF0
FFF0
ENDCHAR
STARTCHAR Ecircumflex.uni00CA
ENCODING 202
SWIDTH 582 0
DWIDTH 16 0
BBX 12 25 2 0
BITMAP
1F80
3FC0
70E0
0000
0000
FFF0
FFF0
FFF0
F000
F000
F000
F000
F000
FFE0
FFE0
FFE0
F000
F000
F000
F000
F000
F000
FFF0
FFF0
FFF0
ENDCHAR
STARTCHAR Edieresis.uni00CB
ENCODING 203
SWIDTH 582 0
DWIDTH 16 0
BBX 12 25 2 0
BITMAP
39C0
39C0
39C0
0000
0000
FFF0
FFF0
FFF0
F000
F000
F000
F000
F000
FFE0
FFE0
FFE0
F000
F000
F000
F000
F000
F000
FFF0
FFF0
FFF0
ENDCHAR
STARTCHAR Igrave.uni00CC
ENCODING 204
SWIDTH 582 0
DWIDTH 16 0
BBX 12 25 2 0
BITMAP
1C00
0E00
0700
0000
0000
FFF0
FFF0
FFF0
0F00
0F00
0F00
0F00
0F00
0F00
0F00
0F00
0F00
0F00
0F00
0F00
0F00
0F00
FFF0
FFF0
FFF0
ENDCHAR
STARTCHAR Iacute.uni00CD
ENCODING 205
SWIDTH 582 0
DWIDTH 16 0
BBX 12 25 2 0
BITMAP
0380
0700
0E00
0000
0000
FFF0
FFF0
FFF0
0F00
0F00
0F00
0F00
0F00
0F00
0F00
0F00
0F00
0F00
0F00
0F00
0F00
0F00
FFF0
FFF0
FFF0
ENDCHAR
STARTCHAR Icircumflex.uni00CE
ENCODING 206
SWIDTH 582 0
DWIDTH 16 0
BBX 12 25 2 0
BITMAP
1F80
3FC0
70E0
0000
0000
FFF0
FFF0
FFF0
0F00
0F00
0F00
0F00
0F00
0F00
0F00
0F00
0F00
0F00
0F00
0F00
0F00
0F00
FFF0
FFF0
FFF0
ENDCHAR
STARTCHAR Idieresis.uni00CF
ENCODING 207
SWIDTH 582 0
DWIDTH 16 0
BBX 12 25 2 0
BITMAP
39C0
39C0
39C0
0000
0000
FFF0
FFF0
FFF0
0F00
0F00
0F00
0F00
0F00
0F00
0F00
0F00
0F00
0F00
0F00
0F00
0F00
0F00
FFF0
FFF0
FFF0
ENDCHAR
STARTCHAR Eth.uni00D0
ENCODING 208
SWIDTH 582 0
DWIDTH 16 0
BBX 15 20 0 0
BITMAP
3FC0
3FF0
3FF8
3C7C
3C3C
3C3C
3C1E
3C1E
FF9E
FF9E
FF9E
3C1E
3C1E
3C1E
3C3E
3C3C
3C7C
3FF8
3FF0
3FC0
ENDCHAR
STARTCHAR Ntilde.uni00D1
ENCODING 209
SWIDTH 582 0
DWIDTH 16 0
BBX 12 25 2 0
BITMAP
38C0
7CC0
67C0
6380
0000
F8F0
F8F0
F8F0
F8F0
FCF0
FCF0
FCF0
FCF0
F6F0
F6F0
F6F0
F6F0
F3F0
F3F0
F3F0
F3F0
F1F0
F1F0
F1F0
F1F0
ENDCHAR
STARTCHAR Ograve.uni00D2
ENCODING 210
SWIDTH 582 0
DWIDTH 16 0
BBX 13 25 1 0
BITMAP
0E00
0700
0380
0000
0000
0F80
3FC0
3FE0
78F0
78F0
F078
F078
F078
F078
F078
F078
F078
F078
F078
F078
78F0
78F0
3FE0
3FE0
0F80
ENDCHAR
STARTCHAR Oacute.uni00D3
ENCODING 211
SWIDTH 582 0
DWIDTH 16 0
BBX 13 25 1 0
BITMAP
01C0
0380
0700
0000
0000
0F80
3FC0
3FE0
78F0
78F0
F078
F078
F078
F078
F078
F078
F078
F078
F078
F078
78F0
78F0
3FE0
3FE0
0F80
ENDCHAR
STARTCHAR Ocircumflex.uni00D4
ENCODING 212
SWIDTH 582 0
DWIDTH 16 0
BBX 13 25 1 0
BITMAP
0FC0
1FE0
3870
0000
0000
0F80
3FC0
3FE0
78F0
78F0
F078
F078
F078
F078
F078
F078
F078
F078
F078
F078
78F0
78F0
3FE0
3FE0
0F80
ENDCHAR
STARTCHAR Otilde.uni00D5
ENCODING 213
SWIDTH 582 0
DWIDTH 16 0
BBX 13 25 1 0
BITMAP
1C60
3E60
33E0
31C0
0000
0F80
3FC0
3FE0
78F0
78F0
F078
F078
F078
F078
F078
F078
F078
F078
F078
F078
78F0
78F0
3FE0
3FE0
0F80
ENDCHAR
STARTCHAR Odieresis.uni00D6
ENCODING 214
SWIDTH 582 0
DWIDTH 16 0
BBX 13 25 1 0
BITMAP
1CE0
1CE0
1CE0
0000
0000
0F80
3FC0
3FE0
78F0
78F0
F078
F078
F078
F078
F078
F078
F078
F078
F078
F078
78F0
78F0
3FE0
3FE0
0F80
ENDCHAR
STARTCHAR multiply.uni00D7
ENCODING 215
SWIDTH 582 0
DWIDTH 16 0
BBX 13 13 1 2
BITMAP
2020
7070
F8F8
7DF0
3FE0
1FC0
0F80
1FC0
3FE0
7DF0
F8F8
7070
2020
ENDCHAR
STARTCHAR Oslash.uni00D8
ENCODING 216
SWIDTH 582 0
DWIDTH 16 0
BBX 15 20 0 1
BITMAP
07CC
1FFE
1FFC
3C78
3C78
787C
78FC
79FC
79FC
7BBC
7BBC
7F3C
7E3C
7E3C
7C3C
3C78
3C78
7FF0
FFF0
E7C0
ENDCHAR
STARTCHAR Ugrave.uni00D9
ENCODING 217
SWIDTH 582 0
DWIDTH 16 0
BBX 12 25 2 0
BITMAP
1C00
0E00
0700
0000
0000
F0F0
F0F0
F0F0
F0F0
F0F0
F0F0
F0F0
F0F0
F0F0
F0F0
F0F0
F0F0
F0F0
F0F0
F0F0
F0F0
F9F0
7FE0
3FC0
1F80
ENDCHAR
STARTCHAR Uacute.uni00DA
ENCODING 218
SWIDTH 582 0
DWIDTH 16 0
BBX 12 25 2 0
BITMAP
0380
0700
0E00
0000
0000
F0F0
F0F0
F0F0
F0F0
F0F0
F0F0
F0F0
F0F0
F0F0
F0F0
F0F0
F0F0
F0F0
F0F0
F0F0
F0F0
F9F0
7FE0
3FC0
1F80
ENDCHAR
STARTCHAR Ucircumflex.uni00DB
ENCODING 219
SWIDTH 582 0
DWIDTH 16 0
BBX 12 25 2 0
BITMAP
1F80
3FC0
70E0
0000
0000
F0F0
F0F0
F0F0
F0F0
F0F0
F0F0
F0F0
F0F0
F0F0
F0F0
F0F0
F0F0
F0F0
F0F0
F0F0
F0F0
F9F0
7FE0
3FC0
1F80
ENDCHAR
STARTCHAR Udieresis.uni00DC
ENCODING 220
SWIDTH 582 0
DWIDTH 16 0
BBX 12 25 2 0
BITMAP
39C0
39C0
39C0
0000
0000
F0F0
F0F0
F0F0
F0F0
F0F0
F0F0
F0F0
F0F0
F0F0
F0F0
F0F0
F0F0
F0F0
F0F0
F0F0
F0F0
F9F0
7FE0
3FC0
1F80
ENDCHAR
STARTCHAR Yacute.uni00DD
ENCODING 221
SWIDTH 582 0
DWIDTH 16 0
BBX 16 25 0 0
BITMAP
00E0
01C0
0380
0000
0000
F00F
781E
781E
3C3C
3C3C
1E78
1E78
0FF0
0FF0
07E0
07E0
03C0
03C0
03C0
03C0
03C0
03C0
03C0
03C0
03C0
ENDCHAR
STARTCHAR Thorn.uni00DE
ENCODING 222
SWIDTH 582 0
DWIDTH 16 0
BBX 12 20 2 0
BITMAP
F000
F000
F000
FF80
FFC0
FFE0
F1F0
F0F0
F0F0
F0F0
F0F0
F1F0
FFE0
FFC0
FF80
F000
F000
F000
F000
F000
ENDCHAR
STARTCHAR germandbls.uni00DF
ENCODING 223
SWIDTH 582 0
DWIDTH 16 0
BBX 13 21 2 0
BITMAP
1F00
7FC0
7FC0
F9E0
F0E0
F1E0
F3E0
F780
F700
F700
F7C0
F3E0
F1F0
F0F8
F078
F078
F078
F478
F7F8
F7F0
F3C0
ENDCHAR
STARTCHAR agrave.uni00E0
ENCODING 224
SWIDTH 582 0
DWIDTH 16 0
BBX 13 22 1 0
BITMAP
3C00
1E00
0E00
0700
0380
0000
0000
1FC0
7FF0
7FF0
6078
0078
1FF8
7FF8
7FF8
F878
F078
F078
F8F8
FFF8
7FF8
1E78
ENDCHAR
STARTCHAR aacute.uni00E1
ENCODING 225
SWIDTH 582 0
DWIDTH 16 0
BBX 13 22 1 0
BITMAP
00F0
01E0
01C0
0380
0700
0000
0000
1FC0
7FF0
7FF0
6078
0078
1FF8
7FF8
7FF8
F878
F078
F078
F8F8
FFF8
7FF8
1E78
ENDCHAR
STARTCHAR acircumflex.uni00E2
ENCODING 226
SWIDTH 582 0
DWIDTH 16 0
BBX 13 22 1 0
BITMAP
0780
0FC0
0FC0
1CE0
3870
0000
0000
1FC0
7FF0
7FF0
6078
0078
1FF8
7FF8
7FF8
F878
F078
F078
F8F8
FFF8
7FF8
1E78
ENDCHAR
STARTCHAR atilde.uni00E3
ENCODING 227
SWIDTH 582 0
DWIDTH 16 0
BBX 13 21 1 0
BITMAP
1C60
3E60
33E0
31C0
0000
0000
1FC0
7FF0
7FF0
6078
0078
1FF8
7FF8
7FF8
F878
F078
F078
F8F8
FFF8
7FF8
1E78
ENDCHAR
STARTCHAR adieresis.uni00E4
ENCODING 228
SWIDTH 582 0
DWIDTH 16 0
BBX 13 21 1 0
BITMAP
1CE0
1CE0
1CE0
0000
0000
0000
1FC0
7FF0
7FF0
6078
0078
1FF8
7FF8
7FF8
F878
F078
F078
F8F8
FFF8
7FF8
1E78
ENDCHAR
STARTCHAR aring.uni00E5
ENCODING 229
SWIDTH 582 0
DWIDTH 16 0
BBX 13 24 1 0
BITMAP
0700
0F80
1DC0
18C0
18C0
1DC0
0F80
0700
0000
1FC0
7FF0
7FF0
6078
0078
1FF8
7FF8
7FF8
F878
F078
F078
F8F8
FFF8
7FF8
1E78
ENDCHAR
STARTCHAR ae.uni00E6
ENCODING 230
SWIDTH 582 0
DWIDTH 16 0
BBX 15 15 0 0
BITMAP
3C78
7EFC
7FFC
478E
038E
038E
3FFE
7FFE
FFFE
E380
E380
E3C2
FFFE
7EFE
3C7C
ENDCHAR
STARTCHAR ccedilla.uni00E7
ENCODING 231
SWIDTH 582 0
DWIDTH 16 0
BBX 11 20 2 -5
BITMAP
0FC0
3FE0
7FE0
7C20
F800
F000
F000
F000
F000
F000
F800
7C20
7FE0
3FE0
0FC0
0300
0180
0180
1F80
1F00
ENDCHAR
STARTCHAR egrave.uni00E8
ENCODING 232
SWIDTH 582 0
DWIDTH 16 0
BBX 13 22 1 0
BITMAP
1E00
0F00
0700
0380
01C0
0000
0000
0F80
3FE0
7FF0
78F0
F078
F078
FFF8
FFF8
FFF8
F000
F000
7810
7FF0
3FF0
0FE0
ENDCHAR
STARTCHAR eacute.uni00E9
ENCODING 233
SWIDTH 582 0
DWIDTH 16 0
BBX 13 22 1 0
BITMAP
0078
00F0
00E0
01C0
0380
0000
0000
0F80
3FE0
7FF0
78F0
F078
F078
FFF8
FFF8
FFF8
F000
F000
7810
7FF0
3FF0
0FE0
ENDCHAR
STARTCHAR ecircumflex.uni00EA
ENCODING 234
SWIDTH 582 0
DWIDTH 16 0
BBX 13 22 1 0
BITMAP
03C0
07E0
07E0
0E70
1C38
0000
0000
0F80
3FE0
7FF0
78F0
F078
F078
FFF8
FFF8
FFF8
F000
F000
7810
7FF0
3FF0
0FE0
ENDCHAR
STARTCHAR edieresis.uni00EB
ENCODING 235
SWIDTH 582 0
DWIDTH 16 0
BBX 13 21 1 0
BITMAP
0E70
0E70
0E70
0000
0000
0000
0F80
3FE0
7FF0
78F0
F078
F078
FFF8
FFF8
FFF8
F000
F000
7810
7FF0
3FF0
0FE0
ENDCHAR
STARTCHAR igrave.uni00EC
ENCODING 236
SWIDTH 582 0
DWIDTH 16 0
BBX 14 22 1 0
BITMAP
3C00
1E00
0E00
0700
0380
0000
0000
7F80
7F80
7F80
0780
0780
0780
0780
0780
0780
0780
0780
0780
FFFC
FFFC
FFFC
ENDCHAR
STARTCHAR iacute.uni00ED
ENCODING 237
SWIDTH 582 0
DWIDTH 16 0
BBX 14 22 1 0
BITMAP
00F0
01E0
01C0
0380
0700
0000
0000
7F80
7F80
7F80
0780
0780
0780
0780
0780
0780
0780
0780
0780
FFFC
FFFC
FFFC
ENDCHAR
STARTCHAR icircumflex.uni00EE
ENCODING 238
SWIDTH 582 0
DWIDTH 16 0
BBX 14 22 1 0
BITMAP
0780
0FC0
0FC0
1CE0
3870
0000
0000
7F80
7F80
7F80
0780
0780
0780
0780
0780
0780
0780
0780
0780
FFFC
FFFC
FFFC
ENDCHAR
STARTCHAR idieresis.uni00EF
ENCODING 239
SWIDTH 582 0
DWIDTH 16 0
BBX 14 21 1 0
BITMAP
1CE0
1CE0
1CE0
0000
0000
0000
7F80
7F80
7F80
0780
0780
0780
0780
0780
0780
0780
0780
0780
FFFC
FFFC
FFFC
ENDCHAR
STARTCHAR eth.uni00F0
ENCODING 240
SWIDTH 582 0
DWIDTH 16 0
BBX 13 21 1 0
BITMAP
1E20
0EF0
0FC0
1F80
7B80
23C0
01E0
1FE0
3FF0
7FF0
78F8
F078
F078
F078
F078
F078
F0F8
78F0
7FF0
3FE0
0F80
ENDCHAR
STARTCHAR ntilde.uni00F1
ENCODING 241
SWIDTH 582 0
DWIDTH 16 0
BBX 11 21 2 0
BITMAP
38C0
7CC0
67C0
6380
0000
0000
F780
FFC0
FFE0
F9E0
F1E0
F1E0
F1E0
F1E0
F1E0
F1E0
F1E0
F1E0
F1E0
F1E0
F1E0
ENDCHAR
STARTCHAR ograve.uni00F2
ENCODING 242
SWIDTH 582 0
DWIDTH 16 0
BBX 13 21 1 0
BITMAP
1C00
0E00
0700
0380
0000
0000
0F80
3FE0
7FF0
78F0
F8F8
F078
F078
F078
F078
F078
F0F8
78F0
7FF0
3FE0
0F80
ENDCHAR
STARTCHAR oacute.uni00F3
ENCODING 243
SWIDTH 582 0
DWIDTH 16 0
BBX 13 21 1 0
BITMAP
00E0
01C0
0380
0700
0000
0000
0F80
3FE0
7FF0
78F0
F8F8
F078
F078
F078
F078
F078
F0F8
78F0
7FF0
3FE0
0F80
ENDCHAR
STARTCHAR ocircumflex.uni00F4
ENCODING 244
SWIDTH 582 0
DWIDTH 16 0
BBX 13 21 1 0
BITMAP
0780
0FC0
1DE0
3870
0000
0000
0F80
3FE0
7FF0
78F0
F8F8
F078
F078
F078
F078
F078
F0F8
78F0
7FF0
3FE0
0F80
ENDCHAR
STARTCHAR otilde.uni00F5
ENCODING 245
SWIDTH 582 0
DWIDTH 16 0
BBX 13 21 1 0
BITMAP
1C60
3E60
33E0
31C0
0000
0000
0F80
3FE0
7FF0
78F0
F8F8
F078
F078
F078
F078
F078
F0F8
78F0
7FF0
3FE0
0F80
ENDCHAR
STARTCHAR odieresis.uni00F6
ENCODING 246
SWIDTH 582 0
DWIDTH 16 0
BBX 13 21 1 0
BITMAP
1CE0
1CE0
1CE0
0000
0000
0000
0F80
3FE0
7FF0
78F0
F8F8
F078
F078
F078
F078
F078
F0F8
78F0
7FF0
3FE0
0F80
ENDCHAR
STARTCHAR divide.uni00F7
ENCODING 247
SWIDTH 582 0
DWIDTH 16 0
BBX 14 15 1 1
BITMAP
0780
0780
0780
0780
0000
0000
FFFC
FFFC
FFFC
0000
0000
0780
0780
0780
0780
ENDCHAR
STARTCHAR oslash.uni00F8
ENCODING 248
SWIDTH 582 0
DWIDTH 16 0
BBX 14 17 1 -1
BITMAP
0018
0F9C
3FF8
7FF0
78F0
F9F8
F1F8
F3F8
F778
FE78
FC78
FCF8
78F0
7FF0
FFE0
CF80
8000
ENDCHAR
STARTCHAR ugrave.uni00F9
ENCODING 249
SWIDTH 582 0
DWIDTH 16 0
BBX 11 22 2 0
BITMAP
7800
3C00
1C00
0E00
0700
0000
0000
F1E0
F1E0
F1E0
F1E0
F1E0
F1E0
F1E0
F1E0
F1E0
F1E0
F1E0
F3E0
FFE0
7FE0
3DE0
ENDCHAR
STARTCHAR uacute.uni00FA
ENCODING 250
SWIDTH 582 0
DWIDTH 16 0
BBX 11 22 2 0
BITMAP
01E0
03C0
0380
0700
0E00
0000
0000
F1E0
F1E0
F1E0
F1E0
F1E0
F1E0
F1E0
F1E0
F1E0
F1E0
F1E0
F3E0
FFE0
7FE0
3DE0
ENDCHAR
STARTCHAR ucircumflex.uni00FB
ENCODING 251
SWIDTH 582 0
DWIDTH 16 0
BBX 11 22 2 0
BITMAP
0F00
1F80
1F80
39C0
70E0
0000
0000
F1E0
F1E0
F1E0
F1E0
F1E0
F1E0
F1E0
F1E0
F1E0
F1E0
F1E0
F3E0
FFE0
7FE0
3DE0
ENDCHAR
STARTCHAR udieresis.uni00FC
ENCODING 252
SWIDTH 582 0
DWIDTH 16 0
BBX 11 21 2 0
BITMAP
39C0
39C0
39C0
0000
0000
0000
F1E0
F1E0
F1E0
F1E0
F1E0
F1E0
F1E0
F1E0
F1E0
F1E0
F1E0
F3E0
FFE0
7FE0
3DE0
ENDCHAR
STARTCHAR yacute.uni00FD
ENCODING 253
SWIDTH 582 0
DWIDTH 16 0
BBX 14 28 1 -6
BITMAP
00F0
01E0
01C0
0380
0700
0000
0000
F03C
703C
7878
7878
3870
3CF0
3CF0
1CE0
1EE0
0FE0
0FC0
0FC0
07C0
0780
0780
0780
0700
0F00
7F00
7E00
7C00
ENDCHAR
STARTCHAR thorn.uni00FE
ENCODING 254
SWIDTH 582 0
DWIDTH 16 0
BBX 13 27 2 -6
BITMAP
F000
F000
F000
F000
F000
F000
F3C0
F7E0
FFF0
F8F0
F8F8
F078
F078
F078
F078
F078
F0F8
F8F0
FFF0
F7E0
F3C0
F000
F000
F000
F000
F000
F000
ENDCHAR
STARTCHAR ydieresis.uni00FF
ENCODING 255
SWIDTH 582 0
DWIDTH 16 0
BBX 14 27 1 -6
BITMAP
1CE0
1CE0
1CE0
0000
0000
0000
F03C
703C
7878
7878
3870
3CF0
3CF0
1CE0
1EE0
0FE0
0FC0
0FC0
07C0
0780
0780
0780
0700
0F00
7F00
7E00
7C00
ENDCHAR
STARTCHAR Cacute.uni0106
ENCODING 262
SWIDTH 582 0
DWIDTH 16 0
BBX 12 25 2 0
BITMAP
00E0
01C0
0380
0000
0000
07E0
1FF0
3FF0
7C30
7810
7800
F000
F000
F000
F000
F000
F000
F000
F000
7800
7810
7C30
3FF0
1FF0
07E0
ENDCHAR
STARTCHAR cacute.uni0107
ENCODING 263
SWIDTH 582 0
DWIDTH 16 0
BBX 12 22 2 0
BITMAP
00F0
01E0
01C0
0380
0700
0000
0000
0FC0
3FE0
7FE0
7C20
F800
F000
F000
F000
F000
F000
F800
7C20
7FE0
3FE0
0FC0
ENDCHAR
STARTCHAR Ccaron.uni010C
ENCODING 268
SWIDTH 582 0
DWIDTH 16 0
BBX 13 25 2 0
BITMAP
1C38
0FF0
07E0
0000
0000
07E0
1FF0
3FF0
7C30
7810
7800
F000
F000
F000
F000
F000
F000
F000
F000
7800
7810
7C30
3FF0
1FF0
07E0
ENDCHAR
STARTCHAR ccaron.uni010D
ENCODING 269
SWIDTH 582 0
DWIDTH 16 0
BBX 12 22 2 0
BITMAP
3870
1CE0
0FC0
0FC0
0780
0000
0000
0FC0
3FE0
7FE0
7C20
F800
F000
F000
F000
F000
F000
F800
7C20
7FE0
3FE0
0FC0
ENDCHAR
STARTCHAR dcroat.uni0111
ENCODING 273
SWIDTH 582 0
DWIDTH 16 0
BBX 15 21 1 0
BITMAP
0078
0078
0078
07FE
07FE
0078
1E78
3F78
7FF8
78F8
F8F8
F078
F078
F078
F078
F078
F0F8
78F8
7FF8
3F78
1E78
ENDCHAR
STARTCHAR Gbreve.uni011E
ENCODING 286
SWIDTH 582 0
DWIDTH 16 0
BBX 13 25 2 0
BITMAP
3060
38E0
1FC0
0F80
0000
07E0
1FF0
3FF0
7C30
7800
7800
F000
F000
F000
F000
F1F8
F1F8
F1F8
F038
7838
7838
7C38
3FF8
1FF8
07E0
ENDCHAR
STARTCHAR gbreve.uni011F
ENCODING 287
SWIDTH 582 0
DWIDTH 16 0
BBX 13 27 1 -6
BITMAP
1830
1C70
0FE0
07C0
0000
0000
1E78
3FF8
7FF8
78F8
F8F8
F078
F078
F078
F078
F078
F8F8
78F8
7FF8
3FF8
1F78
0078
0078
40F0
7FF0
7FE0
3F80
ENDCHAR
STARTCHAR Idotaccent.uni0130
ENCODING 304
SWIDTH 582 0
DWIDTH 16 0
BBX 12 24 2 0
BITMAP
0E00
0E00
0E00
0000
FFF0
FFF0
FFF0
0F00
0F00
0F00
0F00
0F00
0F00
0F00
0F00
0F00
0F00
0F00
0F00
0F00
0F00
FFF0
FFF0
FFF0
ENDCHAR
STARTCHAR dotlessi.uni0131
ENCODING 305
SWIDTH 582 0
DWIDTH 16 0
BBX 14 15 1 0
BITMAP
7F80
7F80
7F80
0780
0780
0780
0780
0780
0780
0780
0780
0780
FFFC
FFFC
FFFC
ENDCHAR
STARTCHAR Lslash.uni0141
ENCODING 321
SWIDTH 582 0
DWIDTH 16 0
BBX 15 20 0 0
BITMAP
1E00
1E00
1E00
1E00
1E00
1E60
1EF0
1FE0
1F80
1F00
3E00
7E00
FE00
FE00
1E00
1E00
1E00
1FFE
1FFE
1FFE
ENDCHAR
STARTCHAR lslash.uni0142
ENCODING 322
SWIDTH 582 0
DWIDTH 16 0
BBX 13 21 1 0
BITMAP
FF00
FF00
FF00
0F00
0F10
0F78
0FF0
0FE0
0F80
0F00
3F00
7F00
FF00
EF00
8F00
0F00
0F00
0F80
07F8
07F8
01F8
ENDCHAR
STARTCHAR OE.uni0152
ENCODING 338
SWIDTH 582 0
DWIDTH 16 0
BBX 15 20 1 0
BITMAP
0FFE
3FFE
7FFE
78E0
78E0
F0E0
F0E0
F0E0
F0FC
F0FC
F0FC
F0E0
F0E0
F0E0
F0E0
78E0
78E0
7FFE
3FFE
0FFE
ENDCHAR
STARTCHAR oe.uni0153
ENCODING 339
SWIDTH 582 0
DWIDTH 16 0
BBX 15 15 1 0
BITMAP
3C78
7EFC
7FFC
F78E
E38E
E38E
E3FE
E3FE
E3FE
E380
E380
E7C2
7FFE
7EFE
3C7C
ENDCHAR
STARTCHAR Scedilla.uni015E
ENCODING 350
SWIDTH 582 0
DWIDTH 16 0
BBX 12 25 2 -5
BITMAP
1FC0
3FE0
7FE0
F860
F020
F000
F000
FC00
7F00
7FC0
1FE0
07E0
01F0
00F0
00F0
80F0
E1F0
FFE0
FFC0
3F80
0600
0300
0300
3F00
3E00
ENDCHAR
STARTCHAR scedilla.uni015F
ENCODING 351
SWIDTH 582 0
DWIDTH 16 0
BBX 11 20 2 -5
BITMAP
1F80
7FC0
FFC0
F040
F000
F800
FF00
7FC0
1FE0
03E0
01E0
81E0
FFE0
FFC0
3F00
0600
0300
0300
3F00
3E00
ENDCHAR
STARTCHAR Scaron.uni0160
ENCODING 352
SWIDTH 582 0
DWIDTH 16 0
BBX 12 24 2 0
BITMAP
70E0
3FC0
1F80
0000
1FC0
3FE0
7FE0
F860
F020
F000
F000
FC00
7F00
7FC0
1FE0
07E0
01F0
00F0
00F0
80F0
E1F0
FFE0
FFC0
3F80
ENDCHAR
STARTCHAR scaron.uni0161
ENCODING 353
SWIDTH 582 0
DWIDTH 16 0
BBX 11 22 2 0
BITMAP
70E0
39C0
1F80
1F80
0F00
0000
0000
1F80
7FC0
FFC0
F040
F000
F800
FF00
7FC0
1FE0
03E0
01E0
81E0
FFE0
FFC0
3F00
ENDCHAR
STARTCHAR Ydieresis.uni0178
ENCODING 376
SWIDTH 582 0
DWIDTH 16 0
BBX 16 24 0 0
BITMAP
0E70
0E70
0E70
0000
F00F
781E
781E
3C3C
3C3C
1E78
1E78
0FF0
0FF0
07E0
07E0
03C0
03C0
03C0
03C0
03C0
03C0
03C0
03C0
03C0
ENDCHAR
STARTCHAR Zcaron.uni017D
ENCODING 381
SWIDTH 582 0
DWIDTH 16 0
BBX 13 25 2 0
BITMAP
70E0
3FC0
1F80
0000
0000
FFF8
FFF8
FFF8
00F8
00F0
01F0
01E0
03C0
07C0
0780
0F00
1F00
1E00
3C00
7C00
7800
F000
FFF8
FFF8
FFF8
ENDCHAR
STARTCHAR zcaron.uni017E
ENCODING 382
SWIDTH 582 0
DWIDTH 16 0
BBX 12 22 2 0
BITMAP
70E0
39C0
1F80
1F80
0F00
0000
0000
FFF0
FFF0
FFF0
01F0
03E0
03C0
0780
0F00
1E00
3C00
7C00
F800
FFF0
FFF0
FFF0
ENDCHAR
STARTCHAR florin.uni0192
ENCODING 402
SWIDTH 582 0
DWIDTH 16 0
BBX 14 26 0 -6
BITMAP
0078
00FC
01FC
01E4
01E0
03C0
03C0
03C0
1FF0
1FF0
1FF0
03C0
0780
0780
0780
0780
0780
0780
0780
0780
0F80
0F00
9F00
FF00
FE00
7800
ENDCHAR
STARTCHAR circumflex.uni02C6
ENCODING 710
SWIDTH 582 0
DWIDTH 16 0
BBX 10 5 3 17
BITMAP
1E00
3F00
3F00
7380
E1C0
ENDCHAR
STARTCHAR caron.uni02C7
ENCODING 711
SWIDTH 582 0
DWIDTH 16 0
BBX 10 5 3 17
BITMAP
E1C0
7380
3F00
3F00
1E00
ENDCHAR
STARTCHAR breve.uni02D8
ENCODING 728
SWIDTH 582 0
DWIDTH 16 0
BBX 9 4 4 17
BITMAP
C180
E380
7F00
3E00
ENDCHAR
STARTCHAR dotaccent.uni02D9
ENCODING 729
SWIDTH 582 0
DWIDTH 16 0
BBX 3 3 6 18
BITMAP
E000
E000
E000
ENDCHAR
STARTCHAR ring.uni02DA
ENCODING 730
SWIDTH 582 0
DWIDTH 16 0
BBX 7 8 4 16
BITMAP
3800
7C00
EE00
C600
C600
EE00
7C00
3800
ENDCHAR
STARTCHAR ogonek.uni02DB
ENCODING 731
SWIDTH 582 0
DWIDTH 16 0
BBX 5 5 6 -5
BITMAP
6000
C000
C000
F800
7800
ENDCHAR
STARTCHAR tilde.uni02DC
ENCODING 732
SWIDTH 582 0
DWIDTH 16 0
BBX 9 4 3 17
BITMAP
7180
F980
CF80
C700
ENDCHAR
STARTCHAR hungarumlaut.uni02DD
ENCODING 733
SWIDTH 582 0
DWIDTH 16 0
BBX 11 5 3 17
BITMAP
1CE0
39C0
3180
6300
C600
ENDCHAR
STARTCHAR Omega.uni03A9
ENCODING 937
SWIDTH 582 0
DWIDTH 16 0
BBX 13 19 1 0
BITMAP
0F80
1FC0
3FE0
78F0
78F0
F078
F078
F078
F078
F078
F078
F078
7070
78F0
38E0
3DE0
FDF8
FDF8
FDF8
ENDCHAR
STARTCHAR pi.uni03C0
ENCODING 960
SWIDTH 582 0
DWIDTH 16 0
BBX 15 15 0 0
BITMAP
FFFE
FFFE
FFFE
3C78
3C78
3C78
3C78
3C78
3C78
3C78
3C78
3C78
3C7E
3C7E
3C3E
ENDCHAR
STARTCHAR endash.uni2013
ENCODING 8211
SWIDTH 582 0
DWIDTH 16 0
BBX 10 3 3 6
BITMAP
FFC0
FFC0
FFC0
ENDCHAR
STARTCHAR emdash.uni2014
ENCODING 8212
SWIDTH 582 0
DWIDTH 16 0
BBX 14 3 1 6
BITMAP
FFFC
FFFC
FFFC
ENDCHAR
STARTCHAR quoteleft.uni2018
ENCODING 8216
SWIDTH 582 0
DWIDTH 16 0
BBX 5 9 5 12
BITMAP
3800
7800
7800
7000
F000
F000
F000
F000
F000
ENDCHAR
STARTCHAR quoteright.uni2019
ENCODING 8217
SWIDTH 582 0
DWIDTH 16 0
BBX 5 9 6 12
BITMAP
7800
7800
7800
7800
7800
7000
F000
F000
E000
ENDCHAR
STARTCHAR quotesinglbase.uni201A
ENCODING 8218
SWIDTH 582 0
DWIDTH 16 0
BBX 5 9 5 -4
BITMAP
7800
7800
7800
7800
7800
7000
F000
F000
E000
ENDCHAR
STARTCHAR quotedblleft.uni201C
ENCODING 8220
SWIDTH 582 0
DWIDTH 16 0
BBX 12 9 2 12
BITMAP
3870
78F0
78F0
70E0
F1E0
F1E0
F1E0
F1E0
F1E0
ENDCHAR
STARTCHAR quotedblright.uni201D
ENCODING 8221
SWIDTH 582 0
DWIDTH 16 0
BBX 12 9 2 12
BITMAP
78F0
78F0
78F0
78F0
78F0
70E0
F1E0
F1E0
E1C0
ENDCHAR
STARTCHAR quotedblbase.uni201E
ENCODING 8222
SWIDTH 582 0
DWIDTH 16 0
BBX 12 9 2 -4
BITMAP
78F0
78F0
78F0
78F0
78F0
70E0
F1E0
F1E0
E1C0
ENDCHAR
STARTCHAR dagger.uni2020
ENCODING 8224
SWIDTH 582 0
DWIDTH 16 0
BBX 11 23 2 -3
BITMAP
0E00
0E00
0E00
0E00
0E00
FFE0
FFE0
FFE0
0E00
0E00
0E00
0E00
0E00
0E00
0E00
0E00
0E00
0E00
0E00
0E00
0E00
0E00
0E00
ENDCHAR
STARTCHAR daggerdbl.uni2021
ENCODING 8225
SWIDTH 582 0
DWIDTH 16 0
BBX 11 23 2 -3
BITMAP
0E00
0E00
0E00
0E00
0E00
FFE0
FFE0
FFE0
0E00
0E00
0E00
0E00
0E00
0E00
0E00
FFE0
FFE0
FFE0
0E00
0E00
0E00
0E00
0E00
ENDCHAR
STARTCHAR bullet.uni2022
ENCODING 8226
SWIDTH 582 0
DWIDTH 16 0
BBX 9 10 3 5
BITMAP
1C00
7F00
7F00
FF80
FF80
FF80
FF80
7F00
7F00
1C00
ENDCHAR
STARTCHAR ellipsis.uni2026
ENCODING 8230
SWIDTH 582 0
DWIDTH 16 0
BBX 11 5 1 0
BITMAP
EEE0
EEE0
EEE0
EEE0
EEE0
ENDCHAR
STARTCHAR perthousand.uni2030
ENCODING 8240
SWIDTH 582 0
DWIDTH 16 0
BBX 16 20 0 0
BITMAP
3800
7C00
EE00
C600
C600
EE00
7C0E
3878
03C0
1E00
7000
0000
1C1C
3E3E
7777
6363
6363
7777
3E3E
1C1C
ENDCHAR
STARTCHAR guilsinglleft.uni2039
ENCODING 8249
SWIDTH 582 0
DWIDTH 16 0
BBX 7 14 4 1
BITMAP
0200
0600
0E00
1E00
3C00
7800
F000
F000
7800
3C00
1E00
0E00
0600
0200
ENDCHAR
STARTCHAR guilsinglright.uni203A
ENCODING 8250
SWIDTH 582 0
DWIDTH 16 0
BBX 6 12 5 2
BITMAP
8000
C000
E000
F000
7800
3C00
3C00
7800
F000
E000
C000
8000
ENDCHAR
STARTCHAR Euro.uni20AC
ENCODING 8364
SWIDTH 582 0
DWIDTH 16 0
BBX 14 20 0 0
BITMAP
01F0
07F8
0FFC
1F10
1E00
1E00
3C00
FFC0
FFC0
3C00
3C00
FFC0
FFC0
3C00
1E00
1E00
1F10
0FFC
07F8
01F0
ENDCHAR
STARTCHAR trademark.uni2122
ENCODING 8482
SWIDTH 582 0
DWIDTH 16 0
BBX 15 8 0 12
BITMAP
FD86
FDCE
31FE
31FE
31B6
31B6
3186
3186
ENDCHAR
STARTCHAR partialdiff.uni2202
ENCODING 8706
SWIDTH 582 0
DWIDTH 16 0
BBX 12 18 2 0
BITMAP
0F80
1FC0
1E60
1860
0070
0070
0070
1E70
3970
70F0
F0F0
E0F0
E0E0
E0E0
E1C0
61C0
7380
1E00
ENDCHAR
STARTCHAR Delta.uni2206
ENCODING 8710
SWIDTH 582 0
DWIDTH 16 0
BBX 16 20 0 0
BITMAP
03C0
03C0
03C0
07E0
07E0
07E0
0FF0
0E70
0E70
1E78
1C38
1C38
3C3C
3C3C
381C
781E
781E
7FFE
FFFF
FFFF
ENDCHAR
STARTCHAR Pi.uni03A0
ENCODING 928
SWIDTH 582 0
DWIDTH 16 0
BBX 12 20 2 0
BITMAP
FFF0
FFF0
FFF0
F0F0
F0F0
F0F0
F0F0
F0F0
F0F0
F0F0
F0F0
F0F0
F0F0
F0F0
F0F0
F0F0
F0F0
F0F0
F0F0
F0F0
ENDCHAR
STARTCHAR summation.uni2211
ENCODING 8721
SWIDTH 582 0
DWIDTH 16 0
BBX 12 26 2 -6
BITMAP
FFF0
FFF0
FFF0
7000
7800
3800
3C00
1C00
1E00
0E00
0F00
0700
0780
0780
0700
0F00
0E00
1E00
1C00
3C00
3800
7800
7000
FFF0
FFF0
FFF0
ENDCHAR
STARTCHAR minus.uni2212
ENCODING 8722
SWIDTH 582 0
DWIDTH 16 0
BBX 12 3 2 7
BITMAP
FFF0
FFF0
FFF0
ENDCHAR
STARTCHAR slashdiv.uni2215
ENCODING 8725
SWIDTH 582 0
DWIDTH 16 0
BBX 13 22 1 -2
BITMAP
0038
0038
0070
0070
00E0
00E0
01C0
01C0
0380
0380
0700
0700
0E00
0E00
1C00
1C00
3800
3800
7000
7000
E000
E000
ENDCHAR
STARTCHAR bulletop.uni2219
ENCODING 8729
SWIDTH 582 0
DWIDTH 16 0
BBX 4 5 6 7
BITMAP
F000
F000
F000
F000
F000
ENDCHAR
STARTCHAR radical.uni221A
ENCODING 8730
SWIDTH 582 0
DWIDTH 16 0
BBX 14 24 1 -1
BITMAP
001C
001C
001C
0038
0038
0038
0030
0070
0070
0070
0060
F8E0
F8E0
F8C0
19C0
1DC0
1DC0
1D80
0F80
0F80
0F00
0700
0700
0700
ENDCHAR
STARTCHAR infinity.uni221E
ENCODING 8734
SWIDTH 582 0
DWIDTH 16 0
BBX 15 11 0 3
BITMAP
3C78
7EFC
7EFC
E7CE
C386
C386
C386
E7CE
7EFC
7EFC
3C78
ENDCHAR
STARTCHAR integral.uni222B
ENCODING 8747
SWIDTH 582 0
DWIDTH 16 0
BBX 13 25 1 -5
BITMAP
00F0
01F8
01B8
03B8
0300
0300
0700
0700
0700
0700
0700
0700
0700
0700
0700
0700
0700
0700
0700
0600
0E00
EE00
EC00
FC00
7000
ENDCHAR
STARTCHAR approxequal.uni2248
ENCODING 8776
SWIDTH 582 0
DWIDTH 16 0
BBX 13 11 1 3
BITMAP
3C08
7F18
FFF8
C3F0
81E0
0000
3C08
7F18
FFF8
C3F0
81E0
ENDCHAR
STARTCHAR notequal.uni2260
ENCODING 8800
SWIDTH 582 0
DWIDTH 16 0
BBX 13 17 1 0
BITMAP
0010
0038
0070
00E0
FFF8
FFF8
FFF8
0380
0700
0E00
FFF8
FFF8
FFF8
3800
7000
E000
4000
ENDCHAR
STARTCHAR lessequal.uni2264
ENCODING 8804
SWIDTH 582 0
DWIDTH 16 0
BBX 13 16 1 0
BITMAP
0008
0078
03F8
1FF0
FF80
FC00
FC00
FF80
1FF0
03F8
0078
0008
0000
FFF8
FFF8
FFF8
ENDCHAR
STARTCHAR greaterequal.uni2265
ENCODING 8805
SWIDTH 582 0
DWIDTH 16 0
BBX 13 16 1 0
BITMAP
8000
F000
FE00
7FC0
0FF8
01F8
01F8
0FF8
7FC0
FE00
F000
8000
0000
FFF8
FFF8
FFF8
ENDCHAR
STARTCHAR fi.uniFB01
ENCODING 64257
SWIDTH 582 0
DWIDTH 16 0
BBX 13 21 1 0
BITMAP
0F78
1F78
3F78
3C78
3C00
3C00
FFF8
FFF8
FFF8
3C78
3C78
3C78
3C78
3C78
3C78
3C78
3C78
3C78
3C78
3C78
3C78
ENDCHAR
STARTCHAR fl.uniFB02
ENCODING 64258
SWIDTH 582 0
DWIDTH 16 0
BBX 13 21 1 0
BITMAP
0FF8
1FF8
3FF8
3C78
3C78
3C78
FF78
FF78
FF78
3C78
3C78
3C78
3C78
3C78
3C78
3C78
3C78
3C78
3C78
3C78
3C78
ENDCHAR
STARTCHAR x-bar.uni0304
ENCODING 772
SWIDTH 616 0
DWIDTH 16 0
BBX 14 20 1 0
BITMAP
3FF0
3FF0
0000
0000
0000
F87C
7878
3CF0
3CF0
1FE0
0FC0
07C0
0780
0FC0
0FC0
1FE0
3CF0
3CF0
7878
F87C
ENDCHAR
STARTCHAR x-hat.uni0302
ENCODING 770
SWIDTH 616 0
DWIDTH 16 0
BBX 14 22 1 0
BITMAP
0780
0FC0
0FC0
1CE0
3870
0000
0000
F87C
7878
3CF0
3CF0
1FE0
0FC0
07C0
0780
0FC0
0FC0
1FE0
3CF0
3CF0
7878
F87C
ENDCHAR
STARTCHAR y-bar.uni0233
ENCODING 563
SWIDTH 616 0
DWIDTH 16 0
BBX 14 26 1 -6
BITMAP
3FF0
3FF0
0000
0000
0000
F03C
703C
7878
7878
3870
3CF0
3CF0
1CE0
1EE0
0FE0
0FC0
0FC0
07C0
0780
0780
0780
0700
0F00
7F00
7E00
7C00
ENDCHAR
STARTCHAR y-hat.uni0177
ENCODING 375
SWIDTH 616 0
DWIDTH 16 0
BBX 14 28 1 -6
BITMAP
0780
0FC0
0FC0
1CE0
3870
0000
0000
F03C
703C
7878
7878
3870
3CF0
3CF0
1CE0
1EE0
0FE0
0FC0
0FC0
07C0
0780
0780
0780
0700
0F00
7F00
7E00
7C00
ENDCHAR
STARTCHAR xsuperior.uni02E3
ENCODING 739
SWIDTH 616 0
DWIDTH 16 0
BBX 11 11 2 9
BITMAP
F1E0
71C0
3B80
3F80
1F00
0E00
1F00
1F00
3B80
71C0
F1E0
ENDCHAR
STARTCHAR theta.uni03B8
ENCODING 952
SWIDTH 616 0
DWIDTH 16 0
BBX 13 20 1 0
BITMAP
0F80
3FC0
3FE0
78F0
78F0
F078
F078
F078
F078
FFF8
FFF8
F078
F078
F078
F078
78F0
78F0
3FE0
3FE0
0F80
ENDCHAR
STARTCHAR mesangle.uni2221
ENCODING 8737
SWIDTH 616 0
DWIDTH 16 0
BBX 15 19 0 1
BITMAP
0030
0038
0078
0070
00F0
01E0
01C0
03C0
0380
0780
0780
0FC0
1EE0
1C60
3C30
3830
7FFE
7FFE
FFFE
ENDCHAR
STARTCHAR space.uni0020
ENCODING 32
SWIDTH 616 0
DWIDTH 16 0
BBX 0 0 0 0
BITMAP
ENDCHAR
STARTCHAR Sigma.uni03A3
ENCODING 931
SWIDTH 616 0
DWIDTH 16 0
BBX 13 20 1 0
BITMAP
7FF8
7FF8
7FF8
3800
3C00
1E00
0E00
0700
0780
03C0
03C0
0780
0F00
1E00
1C00
3C00
7800
FFF8
FFF8
FFF8
ENDCHAR
STARTCHAR mu.uni03BC
ENCODING 956
SWIDTH 616 0
DWIDTH 16 0
BBX 13 21 2 -6
BITMAP
F1E0
F1E0
F1E0
F1E0
F1E0
F1E0
F1E0
F1E0
F1E0
F1E0
F1E0
FBE0
FFF8
FFF8
F678
F000
F000
F000
F000
F000
F000
ENDCHAR
STARTCHAR exponent.uni1D07
ENCODING 7431
SWIDTH 616 0
DWIDTH 16 0
BBX 10 15 3 0
BITMAP
FFC0
FFC0
FFC0
F000
F000
F000
FF80
FF80
FF80
F000
F000
F000
FFC0
FFC0
FFC0
ENDCHAR
STARTCHAR eqminus.uni23BB
ENCODING 9147
SWIDTH 740 0
DWIDTH 16 0
BBX 12 3 2 14
BITMAP
FFF0
FFF0
FFF0
ENDCHAR
STARTCHAR lf.uni240A
ENCODING 9226
SWIDTH 466 0
DWIDTH 16 0
BBX 14 22 0 -1
BITMAP
C000
C000
C000
C000
C000
C000
C000
C000
C000
F800
F800
01FC
01FC
0180
0180
0180
01F8
01F8
0180
0180
0180
0180
ENDCHAR
STARTCHAR esc.uni241B
ENCODING 9243
SWIDTH 615 0
DWIDTH 16 0
BBX 15 25 0 -4
BITMAP
F800
C000
C000
C000
F800
C000
C000
C780
ECC0
0C00
0C00
0600
0180
00C0
00C0
0CC0
079C
0026
0062
0060
0060
0060
0062
0026
001C
ENDCHAR
STARTCHAR bdlvr.uni251C
ENCODING 9500
SWIDTH 466 0
DWIDTH 16 0
BBX 9 25 4 -4
BITMAP
E000
E000
E000
E000
E000
E000
E000
E000
E000
E000
E000
FF80
FF80
FF80
E000
E000
E000
E000
E000
E000
E000
E000
E000
E000
E000
ENDCHAR
STARTCHAR block.uni2588
ENCODING 9608
SWIDTH 740 0
DWIDTH 16 0
BBX 16 29 0 -5
BITMAP
FFFF
FFFF
FFFF
FFFF
FFFF
FFFF
FFFF
FFFF
FFFF
FFFF
FFFF
FFFF
FFFF
FFFF
FFFF
FFFF
FFFF
FFFF
FFFF
FFFF
FFFF
FFFF
FFFF
FFFF
FFFF
FFFF
FFFF
FFFF
FFFF
ENDCHAR
STARTCHAR shade.uni2592
ENCODING 9618
SWIDTH 740 0
DWIDTH 16 0
BBX 16 29 0 -5
BITMAP
5555
0000
AAAA
0000
5555
0000
AAAA
0000
5555
0000
AAAA
0000
5555
0000
AAAA
0000
5555
0000
AAAA
0000
5555
0000
AAAA
0000
5555
0000
AAAA
0000
5555
ENDCHAR
STARTCHAR filledbox.uni25A0
ENCODING 9632
SWIDTH 466 0
DWIDTH 16 0
BBX 10 12 3 2
BITMAP
FFC0
FFC0
FFC0
FFC0
FFC0
FFC0
FFC0
FFC0
FFC0
FFC0
FFC0
FFC0
ENDCHAR
STARTCHAR triagup.uni25B2
ENCODING 9650
SWIDTH 466 0
DWIDTH 16 0
BBX 15 15 0 0
BITMAP
0100
0100
0380
0380
07C0
07C0
0FE0
0FE0
1FF0
1FF0
3FF8
3FF8
7FFC
7FFC
FFFE
ENDCHAR
STARTCHAR triagright.uni25B6
ENCODING 9654
SWIDTH 466 0
DWIDTH 16 0
BBX 15 15 1 0
BITMAP
8000
E000
F800
FE00
FF80
FFE0
FFF8
FFFE
FFF8
FFE0
FF80
FE00
F800
E000
8000
ENDCHAR
STARTCHAR triagdn.uni25BC
ENCODING 9660
SWIDTH 466 0
DWIDTH 16 0
BBX 15 15 0 0
BITMAP
FFFE
7FFC
7FFC
3FF8
3FF8
1FF0
1FF0
0FE0
0FE0
07C0
07C0
0380
0380
0100
0100
ENDCHAR
STARTCHAR lozenge.uni25CA
ENCODING 9674
SWIDTH 466 0
DWIDTH 16 0
BBX 13 27 1 -5
BITMAP
0200
0200
0700
0500
0D80
0880
18C0
1040
3060
2020
6030
4010
C018
8008
C018
4010
6030
2020
3060
1040
18C0
0880
0D80
0500
0700
0200
0200
ENDCHAR
STARTCHAR boldparleft.uni27EA
ENCODING 10218
SWIDTH 740 0
DWIDTH 16 0
BBX 8 24 4 -3
BITMAP
0F00
1E00
1E00
3C00
3C00
7C00
7C00
7800
F800
F800
F800
F800
F800
F800
F800
F800
7800
7C00
7C00
3C00
3C00
1E00
1E00
0F00
ENDCHAR
STARTCHAR boldparright.uni27EB
ENCODING 10219
SWIDTH 740 0
DWIDTH 16 0
BBX 8 24 4 -3
BITMAP
F000
7800
7800
3C00
3C00
3E00
3E00
1E00
1F00
1F00
1F00
1F00
1F00
1F00
1F00
1F00
1E00
3E00
3E00
3C00
3C00
7800
7800
F000
ENDCHAR
STARTCHAR arrowleft.uni2190
ENCODING 8592
SWIDTH 466 0
DWIDTH 16 0
BBX 15 15 0 0
BITMAP
0180
0380
0700
0F00
1E00
3E00
7FFE
FFFE
7FFE
3E00
1E00
0F00
0700
0380
0180
ENDCHAR
STARTCHAR arrowup.uni2191
ENCODING 8593
SWIDTH 466 0
DWIDTH 16 0
BBX 15 26 0 -6
BITMAP
0100
0380
07C0
0FE0
1FF0
3FF8
7FFC
F39E
C386
0380
0380
0380
0380
0380
0380
0380
0380
0380
0380
0380
0380
0380
0380
0380
0380
0380
ENDCHAR
STARTCHAR arrowright.uni2192
ENCODING 8594
SWIDTH 466 0
DWIDTH 16 0
BBX 15 15 1 0
BITMAP
0300
0380
01C0
01E0
00F0
00F8
FFFC
FFFE
FFFC
00F8
00F0
01E0
01C0
0380
0300
ENDCHAR
STARTCHAR arrowdown.uni2193
ENCODING 8595
SWIDTH 466 0
DWIDTH 16 0
BBX 15 26 0 -6
BITMAP
0380
0380
0380
0380
0380
0380
0380
0380
0380
0380
0380
0380
0380
0380
0380
0380
0380
C386
F39E
7FFC
3FF8
1FF0
0FE0
07C0
0380
0100
ENDCHAR
STARTCHAR uparrtipleft.uni21B0
ENCODING 8624
SWIDTH 740 0
DWIDTH 16 0
BBX 13 21 1 -2
BITMAP
0600
0E00
1C00
3C00
7FC0
FFF0
7FF0
3C78
1C38
0E38
0638
0038
0038
0038
0038
0038
0038
0038
0038
0038
0038
ENDCHAR
STARTCHAR upaartipright.uni21B1
ENCODING 8625
SWIDTH 740 0
DWIDTH 16 0
BBX 13 21 2 -2
BITMAP
0300
0380
01C0
01E0
1FF0
7FF8
7FF0
F1E0
E1C0
E380
E300
E000
E000
E000
E000
E000
E000
E000
E000
E000
E000
ENDCHAR
STARTCHAR carriagereturn.uni21B5
ENCODING 8629
SWIDTH 740 0
DWIDTH 16 0
BBX 15 18 0 0
BITMAP
000E
000E
000E
000E
000E
000E
000E
060E
0E0E
1C0E
3C1E
7FFC
FFFC
7FF0
3C00
1C00
0E00
0600
ENDCHAR
STARTCHAR triagleft.uni25C0
ENCODING 9664
SWIDTH 466 0
DWIDTH 16 0
BBX 15 15 0 0
BITMAP
0002
000E
003E
00FE
03FE
0FFE
3FFE
FFFE
3FFE
0FFE
03FE
00FE
003E
000E
0002
ENDCHAR
STARTCHAR germandblS.uni1E9E
ENCODING 7838
SWIDTH 582 0
DWIDTH 16 0
BBX 13 21 2 0
BITMAP
0FF8
3FF8
7FF0
7C70
F8E0
F1E0
F1C0
F3C0
F380
F780
F7C0
F3E0
F1F0
F0F8
F078
F078
F078
F478
F7F8
F7F0
F3C0
ENDCHAR
STARTCHAR Gamma.uni0393
ENCODING 915
SWIDTH 582 0
DWIDTH 16 0
BBX 12 20 3 0
BITMAP
FFF0
FFF0
FFF0
F000
F000
F000
F000
F000
F000
F000
F000
F000
F000
F000
F000
F000
F000
F000
F000
F000
ENDCHAR
ENDFONT
